<?xml version="1.0" encoding="UTF-8" standalone="no"?>
<svg
   width="4841"
   height="3423"
   viewBox="0 0 4841 3423"
   version="1.1"
   id="svg42"
   xmlns="http://www.w3.org/2000/svg"
   xmlns:svg="http://www.w3.org/2000/svg">
  <defs
     id="defs42" />
  <path
     fill="#ffdd59"
     d="m 2404.9362,522.05796 c 212.3938,-12.13356 228.8518,180.58205 375.3141,231.80876 97.6548,34.15643 202.7535,-21.73763 304.0458,-3.35741 44.9812,8.16093 81.6838,27.53407 112.2444,51.73857 98.9965,78.39203 95.3094,185.44422 100.6264,283.92802 2.4945,46.1965 6.9171,92.5919 34.377,135.2998 49.8113,77.4349 169.8176,113.0266 230.0642,185.4224 31.9421,38.3746 48.8473,82.1659 55.6452,126.2156 29.1493,188.6426 -158.7959,251.2485 -168.9928,403.3354 -2.6833,39.9648 7.921,78.061 20.0856,116.8232 26.456,84.3425 53.7668,165.3058 21.3576,251.4175 -80.0638,212.7546 -287.9058,133.8686 -404.5231,239.0831 -33.4328,30.1649 -49.3541,67.9133 -63.9835,104.2305 -33.4825,83.1697 -63.4667,179.946 -178.2155,226.3711 -168.2772,68.0724 -255.6557,-63.7687 -400.9254,-91.6079 -136.9314,-3.3793 -193.5804,91.2104 -316.0713,107.4308 -40.9761,5.4367 -82.3397,-0.3379 -119.4696,-13.2189 -193.6996,-67.2275 -139.4359,-247.3822 -261.0423,-342.2402 -71.4373,-55.7181 -186.8023,-50.4306 -270.2751,-91.7371 -47.1478,-23.3368 -80.0638,-57.9743 -102.6538,-94.8878 -109.1138,-178.316 55.9234,-289.2653 14.2815,-447.1566 -25.3231,-96.0308 -134.5362,-169.7286 -159.5214,-275.0027 -9.6204,-42.3899 -8.2489,-85.6644 4.0449,-127.7065 46.9491,-165.2958 232.9464,-173.1874 292.0104,-302.176 16.5971,-36.2575 19.2209,-73.9364 20.9303,-111.7146 4.1045,-90.86051 1.6199,-187.63973 80.4812,-264.79137 44.4843,-43.518 108.925,-75.1062 187.1999,-73.24462 34.8043,0.82792 69.5391,6.86786 103.6179,11.59387 33.4725,4.64152 67.6408,10.01257 101.819,6.00317 109.9884,-12.90483 162.3837,-108.16835 220.265,-165.32765 43.0631,-42.52708 93.8881,-67.86363 167.2634,-76.53244 z"
     id="path2"
     style="stroke-width:0.993872" />
  <path
     fill="#fd914e"
     d="m 2399.1322,570.44807 c 17.8991,-1.40737 35.6689,-1.13603 53.3295,1.46302 95.687,14.09254 148.4401,92.97953 196.8004,145.97836 48.2907,52.92329 112.8009,97.39047 207.8519,94.96137 34.9633,-0.89351 69.6881,-6.8291 103.9657,-11.47857 36.4243,-4.93969 73.425,-10.20439 110.2965,-4.39007 37.4976,5.91173 68.3961,21.29932 93.8583,41.20818 105.4068,82.41932 74.1704,200.19874 87.7562,301.52704 4.9095,36.6253 16.3983,73.2903 38.1635,106.8444 33.4825,51.6134 91.2843,87.3342 149.6824,124.5956 30.2724,19.3115 59.8988,38.4143 81.5446,63.1525 25.0448,28.6145 38.9486,61.0057 46.0546,94.1027 35.9671,167.5023 -157.2753,240.1267 -167.8399,406.1083 -7.5532,118.493 87.2096,228.5478 46.7503,347.8061 -65.2556,192.3498 -283.3739,110.2038 -404.2249,235.8629 -86.9114,90.3655 -71.6262,249.8769 -212.2348,309.5607 -121.1194,51.4046 -207.0866,-26.5173 -301.9388,-67.8438 -25.3728,-11.0522 -49.8511,-18.2977 -78.6725,-23.5157 -145.1206,-16.131 -201.1335,83.2691 -320.8516,105.3934 -32.7967,6.0628 -65.673,3.3594 -96.6411,-5.9038 -137.478,-41.1177 -146.8698,-173.6645 -193.2226,-260.0843 -15.8915,-29.6381 -37.4777,-58.0836 -68.3265,-81.331 -80.5111,-60.6777 -174.3694,-51.335 -262.1753,-88.2386 -41.0059,-17.2343 -71.0696,-44.4374 -91.1451,-74.6818 -99.0164,-149.2443 54.9594,-281.3041 16.3486,-437.3765 -23.4546,-94.7984 -121.7554,-166.2202 -154.5224,-257.9176 -12.9497,-37.1023 -14.9672,-75.6856 -5.9332,-113.3545 32.5284,-143.2511 202.3262,-160.3462 276.4468,-276.752 77.2712,-121.3356 -0.01,-266.20573 95.7069,-379.12294 123.8525,-146.10856 274.479,-15.8905 427.0435,-66.80909 128.613,-42.92067 154.7013,-161.18606 258.6372,-210.18543 21.1688,-9.97878 42.9837,-15.27031 67.4918,-19.57887 z"
     id="path3"
     style="stroke-width:0.993872" />
  <path
     fill="#d1c7fe"
     d="m 2404.479,672.38265 c 198.6192,-4.15252 203.7374,158.0503 326.8445,201.85454 86.0368,30.61715 186.0371,-19.73293 276.9239,-0.50391 38.0939,8.06154 68.5253,25.41706 93.9677,46.58916 133.7312,111.28816 42.0096,255.29466 115.1265,364.37536 46.303,69.0762 154.751,100.6823 205.9934,167.9496 25.1541,33.0174 38.1734,70.0502 43.2619,107.2122 21.8943,159.8791 -139.7539,217.3465 -148.122,348.7801 -2.2362,35.204 7.3444,68.8277 17.9785,102.9583 23.6038,75.7552 47.4559,149.6419 14.9772,226.4407 -27.9766,66.1839 -81.9322,113.2054 -175.6912,135.5484 -39.2965,9.3625 -80.849,16.3596 -117.3229,30.6618 -94.0472,36.8539 -112.0258,119.7155 -138.7999,186.5356 -23.0769,57.5966 -59.3223,109.1602 -136.0767,139.0369 -139.6446,54.3466 -220.0463,-56.9108 -343.223,-82.2454 -118.6348,-4.3334 -168.3467,77.097 -273.5448,93.3175 -36.2255,5.5857 -72.0733,0.7852 -105.2676,-10.2869 -172.4215,-57.4873 -122.3915,-216.5812 -231.724,-300.5261 -60.9025,-46.7532 -157.1958,-43.8212 -229.3288,-76.938 -43.0432,-19.7588 -73.3852,-49.8939 -93.9676,-82.7026 -97.4461,-155.3767 47.1577,-253.1071 10.972,-392.7304 -21.7155,-83.776 -112.9998,-147.7237 -137.0507,-231.3108 -10.2763,-37.6292 -10.5546,-76.2721 -0.815,-113.9708 37.4778,-151.1427 204.6518,-155.9233 257.3949,-271.8024 14.5399,-31.9738 16.7264,-65.359 18.1575,-98.6547 3.2797,-76.1726 1.3715,-156.9669 63.6356,-222.95306 39.376,-41.73196 96.6411,-72.09169 170.0562,-70.40305 30.1829,0.69374 60.018,5.78352 89.5848,9.80385 31.3457,4.26284 63.3772,9.0286 95.2298,4.4 87.299,-12.68616 133.622,-86.17528 177.7982,-133.90643 38.6505,-41.75879 83.6814,-66.24158 153.0316,-76.52946 z"
     id="path4"
     style="stroke-width:0.993872" />
  <path
     fill="#fd914e"
     d="m 2403.0877,714.20903 c 13.2578,-0.84879 27.0424,-0.72058 40.1511,1.00285 93.7888,12.33035 139.585,89.67679 187.6968,139.46433 40.1413,41.55106 95.2597,73.10547 169.6288,71.61262 30.3818,-0.61025 60.5647,-5.58075 90.3501,-9.56332 32.0812,-4.29167 64.222,-8.85567 96.8001,-4.25986 33.0651,4.66438 60.5746,18.11485 82.946,35.52901 92.9341,72.35504 64.9475,175.81034 77.2612,264.79434 4.2934,31.0794 13.9933,62.0692 32.0017,90.6837 49.2746,78.2598 142.5267,100.9804 199.7024,162.0954 23.4745,25.0861 36.7622,54.3764 43.4607,83.9052 32.7768,144.3544 -136.2656,213.0231 -146.0748,355.0914 -7.0165,101.7656 72.9181,198.1344 42.3476,300.1286 -52.2264,174.2708 -251.8692,100.4139 -357.8225,214.5636 -74.0909,79.8202 -57.5037,210.7569 -179.6368,266.3558 -109.9685,50.0628 -191.3641,-30.155 -279.3091,-64.2856 -20.7017,-8.0308 -40.4394,-12.1853 -63.4468,-15.7633 -134.6953,-2.0773 -173.5942,74.1451 -272.8888,93.2379 -28.7916,5.5361 -57.4838,3.0613 -84.7151,-5.0192 -121.3579,-35.9792 -128.3843,-154.6511 -170.225,-230.3467 -14.1822,-25.6824 -33.5919,-49.8243 -60.7138,-69.8017 -66.4184,-48.9398 -146.8002,-42.5689 -222.6104,-73.5388 -37.7958,-15.4453 -64.8979,-38.9212 -83.3535,-66.6511 -84.1485,-126.4542 44.1067,-250.5826 14.7287,-380.1278 -18.8034,-82.9013 -104.7011,-145.2886 -134.5958,-224.9896 -11.8566,-32.4707 -14.1623,-66.3131 -6.7681,-99.4299 29.2885,-137.5064 198.8775,-141.6211 256.7489,-271.047 43.6097,-97.5615 -7.9408,-210.9756 67.1439,-301.93554 109.1038,-132.17008 234.7552,-14.78628 374.6383,-60.37954 112.2941,-36.60343 133.284,-139.26853 224.9758,-183.04097 19.3202,-9.21944 39.2368,-14.03291 61.5784,-18.28482 z"
     id="path5"
     style="stroke-width:0.993872" />
  <path
     fill="#ffdd59"
     d="m 1712.9943,1513.4146 c 33.5521,-0.02 84.2081,-1.0734 111.5388,14.9284 20.6222,12.0858 28.8114,30.8507 30.7593,49.1385 2.2163,20.7825 -2.9914,43.1652 -23.4049,59.0676 -24.8063,19.3314 -59.6205,21.3291 -94.0869,22.4821 -0.1789,16.5484 -5.5159,81.6788 2.9218,92.9994 l 6.6886,0.5168 c 12.4727,-0.5466 21.7452,-0.5168 33.3235,2.9718 -17.6804,9.3327 -106.0826,3.8364 -131.4355,2.8226 7.5035,-3.8364 14.3809,-8.0207 21.3577,-12.3144 4.2039,-34.1803 -0.1889,-70.905 -0.2485,-105.3337 -0.07,-35.6215 3.8163,-72.9723 0.6261,-108.4049 -0.2981,-3.2401 -1.3019,-5.6851 -3.0213,-8.6669 -5.5953,-1.8188 -11.6677,-2.5443 -17.6605,-3.4885 l -2.1865,-2.5246 2.3554,-1.8089 c 19.9365,-2.9618 42.119,-2.0573 62.4729,-2.3853 z"
     id="path6"
     style="stroke-width:0.993872" />
  <path
     fill="#fd914e"
     d="m 1737.9397,1520.6899 c 5.6152,0.2783 11.449,0.5566 16.8655,1.6996 9.5806,2.0077 16.2393,8.1997 20.5625,14.2526 19.7377,27.6702 9.1136,79.86 -4.9393,108.0769 -2.1766,1.2026 -4.4028,2.3655 -6.6787,3.4687 -6.7084,3.1805 -11.767,4.5322 -19.8967,3.4786 -1.3715,-1.0237 -3.3094,-1.779 -4.1244,-3.0612 -6.46,-10.2173 -1.9678,-108.6533 -1.7889,-127.9152 z"
     id="path7"
     style="stroke-width:0.993872" />
  <path
     fill="#ffdd59"
     d="m 1921.7108,1592.0024 c 22.2819,-3.3296 42.6557,-4.2937 64.6693,1.1032 15.2455,4.6913 25.8001,11.9368 32.3197,22.8797 21.2582,35.6413 -12.751,105.0057 15.5437,128.7401 4.5418,0.974 7.2053,0.7752 10.0676,3.5681 -2.8225,3.3594 -5.4165,6.4604 -9.5807,9.0843 -7.6625,4.8403 -18.2767,7.3847 -28.5232,6.5796 -20.2644,-1.6002 -31.9818,-11.3504 -43.5899,-21.9354 -10.4154,10.2272 -18.9823,18.407 -37.8554,20.4545 -12.7013,1.3914 -25.1342,-1.312 -34.9931,-7.0965 -12.751,-7.4841 -19.3998,-19.0133 -20.7216,-30.5028 -1.3317,-11.5392 2.6237,-23.3369 13.8442,-32.0434 19.9563,-15.5049 50.7455,-15.3161 78.0066,-16.0814 1.1926,-25.752 7.3942,-59.6043 -11.8267,-82.464 -5.7842,0.6758 -11.4193,1.3716 -17.273,1.6499 l -0.6062,-2.5047 z"
     id="path8"
     style="stroke-width:0.993872" />
  <path
     fill="#ffd557"
     d="m 1921.7108,1592.0024 c 22.2819,-3.3296 42.6557,-4.2937 64.6693,1.1032 -11.6975,-0.2484 -26.9232,-2.4947 -37.3088,1.1828 -5.7842,0.6758 -11.4193,1.3716 -17.273,1.6499 l -0.6062,-2.5047 z"
     id="path9"
     style="stroke-width:0.993872" />
  <path
     fill="#fd914e"
     d="m 1951.9236,1681.9406 4.8201,1.6896 c 2.2759,2.2363 3.8064,4.2142 4.6015,6.9474 5.4363,18.8643 0.099,43.851 -14.6492,59.8727 -7.5234,-4.8702 -9.2725,-9.8397 -10.7335,-16.8069 -3.7766,-18.0195 0.3876,-37.003 15.9611,-51.7028 z"
     id="path10"
     style="stroke-width:0.993872" />
  <path
     fill="#ffdd59"
     d="m 3040.9547,1589.6866 c 0.7454,-0.05 1.4908,-0.1093 2.2361,-0.1292 19.7973,-0.6361 40.3003,2.1667 55.3272,11.8573 26.2572,16.9261 27.261,44.7852 28.4238,68.0326 l -98.9766,-0.04 c -0.2982,21.3093 -1.1628,43.5627 8.7855,64.0073 3.6474,7.494 9.6999,16.8665 21.2185,19.6594 7.9806,1.9281 15.8717,0.05 22.9876,-2.5643 23.1068,-8.468 31.0675,-22.989 38.889,-39.3883 3.061,0.805 1.3417,0.1192 4.4524,2.7729 -0.2683,6.2418 -2.3256,11.3405 -6.2711,16.956 -9.9782,14.2327 -26.5455,26.567 -48.3206,31.3278 -19.529,4.2738 -40.0816,1.8089 -57.7024,-5.2279 -24.0708,-9.611 -38.6107,-26.7956 -45.7763,-45.2226 -11.0813,-28.4753 -10.0676,-65.6969 11.777,-91.5681 14.8778,-17.6021 35.6888,-25.7421 62.9499,-30.4731 z"
     id="path11"
     style="stroke-width:0.993872" />
  <path
     fill="#fd914e"
     d="m 3042.2467,1595.1928 c 6.2711,0.825 10.0775,1.9282 14.033,5.6752 11.3497,10.754 12.8901,40.2033 7.9806,53.2036 -1.9082,5.049 -3.6673,6.2218 -9.9583,8.7364 -8.0004,-0.328 -14.9871,-0.5467 -22.5205,-2.5941 -2.1864,-2.276 -3.9853,-4.2241 -4.8897,-6.9474 -5.6748,-16.9659 3.4586,-43.344 15.3549,-58.0737 z"
     id="path12"
     style="stroke-width:0.993872" />
  <path
     fill="#ffdd59"
     d="m 2655.2748,1589.7363 c 21.467,-0.2186 41.6221,1.302 58.1596,11.9567 26.0883,16.8068 26.3964,44.6361 28.076,67.7145 l -99.0462,-0.03 c -0.2186,21.6869 -1.0038,44.3777 9.4017,65.1105 3.6276,7.2257 9.6502,16.2702 20.8111,18.8841 7.7022,1.799 15.5039,-0.02 22.3117,-2.6338 23.2658,-8.9451 31.7333,-23.1977 39.4555,-40.0741 1.6299,0.5764 2.8225,1.6399 4.1741,2.5046 0.01,7.9115 -3.6772,14.4016 -8.8253,21.3689 -9.2924,12.5629 -20.9104,21.9354 -40.7673,26.0005 -21.0695,4.3036 -46.5019,2.6736 -65.683,-4.9497 -23.7031,-9.4122 -36.9311,-26.895 -43.3613,-44.9939 -10.3359,-29.1015 -8.716,-66.0647 14.4604,-92.0155 14.9374,-16.7174 34.3968,-24.4599 60.833,-28.843 z"
     id="path13"
     style="stroke-width:0.993872" />
  <path
     fill="#fd914e"
     d="m 2657.0439,1595.2226 c 6.5792,0.7157 10.5844,2.3158 14.3709,6.3113 10.7235,11.3206 12.2242,40.0543 7.1159,53.2931 -1.7591,4.5818 -3.6375,5.526 -9.3322,7.8021 -8.0799,-0.2485 -15.0964,-0.3578 -22.7092,-2.4152 -2.2163,-2.276 -4.0748,-4.244 -5.0388,-6.9673 -6.0028,-17.0056 3.717,-43.3341 15.5934,-58.024 z"
     id="path14"
     style="stroke-width:0.993872" />
  <path
     fill="#ffdd59"
     d="m 2055.939,1498.3073 c 28.9804,-1.5803 58.1298,-0.9442 87.1797,-0.7554 -1.3417,82.4939 -1.6398,164.9877 -0.8944,247.4915 3.6374,5.3969 8.5073,7.2555 15.2554,10.4559 0.8448,0.3975 1.6896,0.7852 2.5343,1.1728 l -2.6336,2.1269 -8.1396,0.2883 c -19.6284,0.7454 -72.9877,6.192 -87.299,-2.5643 l 0.805,-2.1766 c 3.1107,-0.6063 7.4737,-1.143 10.2266,-2.2761 4.2636,-1.7492 4.2437,-3.4488 4.7009,-6.6691 3.4089,-23.7244 2.6337,-229.1441 -2.8722,-237.4431 -2.5144,-3.7868 -13.1187,-4.6714 -18.8631,-9.6508 z"
     id="path15"
     style="stroke-width:0.993872" />
  <path
     fill="#ffdd59"
     d="m 2756.6267,1840.0903 1.7492,-2.5146 c 4.9195,-0.9442 8.4476,-1.6002 12.4727,-3.8663 4.3629,-12.6225 4.4226,-222.7334 0.9044,-231.7382 -5.2276,-1.461 -10.1074,-2.9518 -15.0865,-4.8303 l 0.8646,-1.8984 c 19.8073,-6.848 56.8775,-2.8525 78.9706,-2.3853 -0.487,5.3571 -1.0435,10.5254 0.9342,15.7632 15.8617,41.8632 -15.6331,90.8725 7.583,136.5622 6.4501,4.4129 10.7633,6.5896 19.3302,8.5774 -4.6809,1.1926 -7.5233,1.9082 -11.4888,4.1147 l -11.9459,-5.4267 -1.9678,0.6957 c -3.9356,26.9944 -1.2324,55.6884 -1.1628,82.8815 16.7263,-0.318 31.6439,0.3081 48.2013,2.4152 -31.6837,6.2715 -98.4201,8.2892 -129.3584,1.6499 z"
     id="path16"
     style="stroke-width:0.993872" />
  <path
     fill="#ffd557"
     d="m 2845.0189,1745.1826 c 6.4501,4.4129 10.7633,6.5896 19.3302,8.5774 -4.6809,1.1926 -7.5233,1.9082 -11.4888,4.1147 l -11.9459,-5.4267 -1.9678,0.6957 c -3.9356,26.9944 -1.2324,55.6884 -1.1628,82.8815 16.7263,-0.318 31.6439,0.3081 48.2013,2.4152 -31.6837,6.2715 -98.4201,8.2892 -129.3584,1.6499 24.6075,-2.3655 53.5879,-0.4075 78.742,-0.5467 0.2386,-27.1931 -3.8958,-56.1455 0.3578,-83.0902 0.9839,-6.2019 2.1964,-7.3449 9.2924,-11.2708 z"
     id="path17"
     style="stroke-width:0.993872" />
  <path
     fill="#ffdd59"
     d="m 2522.289,1589.3586 c 7.3345,0.03 14.5001,0.1591 21.298,2.3655 11.459,3.7073 19.2407,12.6424 22.749,20.9018 4.9195,11.6087 4.6611,26.6862 -4.5916,37.2514 -4.0548,4.6415 -9.7992,7.9214 -17.4419,9.0843 -7.7122,1.1728 -19.6979,-0.7554 -25.9889,-4.0253 -24.5777,-12.7816 9.1533,-36.4265 7.7917,-50.8381 l -3.7965,-1.6002 c -4.9394,0.5069 -9.6005,1.1629 -13.9734,2.9817 -12.0056,4.9993 -17.0444,18.0195 -19.6979,26.9845 -4.9493,16.7174 -10.9124,106.0493 -0.4572,117.4991 6.4302,3.7768 12.8305,3.6277 20.7614,4.0749 l -1.9082,2.8724 c -19.7774,8.16 -82.1112,2.5842 -105.526,1.6698 7.0165,-3.9359 16.7064,-8.1202 18.4655,-14.7893 2.9617,-11.3006 2.4747,-134.7532 -3.3989,-141.3627 -6.0227,-1.1231 -9.2825,-1.4709 -13.556,-4.9098 l 0.9143,-2.6239 c 20.821,-6.1722 57.7223,-2.3755 80.4614,-2.0276 -0.1391,5.8839 -0.2882,11.4696 1.0236,17.2939 l 1.9679,0.4671 -1.789,-1.9281 3.5977,1.5604 -3.2896,-1.0237 3.6971,0.8249 7.5333,-5.6652 c 7.2451,-5.5261 13.6157,-9.8397 22.6596,-13.9246 0.8249,-0.3777 1.6597,-0.7454 2.4946,-1.1132 z"
     id="path18"
     style="stroke-width:0.993872" />
  <path
     fill="#ffdd59"
     d="m 2314.934,1589.7462 c 18.1276,-0.7056 35.8279,0.4771 51.2424,7.8718 13.9337,6.6889 22.1925,17.751 24.7765,29.3598 2.3554,10.6149 -1.1628,24.3407 -10.4254,33.0274 -4.2338,3.9557 -10.2465,7.0865 -17.5214,7.166 -10.1074,0.1193 -21.1291,-5.4764 -27.271,-10.8335 -18.4358,-16.0515 10.7732,-31.1887 10.8229,-46.9321 0.01,-4.0153 -2.2759,-7.7822 -6.6091,-10.4161 -4.8201,-2.932 -9.2725,-2.6835 -15.1858,-2.2959 -7.8116,2.6239 -11.1609,6.2318 -14.3809,11.7579 -15.6033,26.7856 -16.4083,99.8871 -0.06,127.2691 5.0786,8.488 10.5646,11.9766 22.4907,15.4055 5.2276,0.1093 10.5744,-0.1391 15.484,-1.5604 24.4684,-7.1163 32.916,-30.5327 41.6221,-46.5246 -1.451,12.4338 -3.4785,24.2811 -11.8963,35.5221 -8.6663,11.5591 -22.908,18.9239 -40.5984,22.4125 -19.3501,3.8265 -40.0518,2.7034 -57.4838,-4.6018 -23.3254,-9.77 -36.146,-27.6802 -42.1786,-45.789 -9.7396,-29.2108 -7.5929,-67.0387 16.0108,-92.8404 15.1262,-16.5386 34.854,-23.804 61.161,-27.9983 z"
     id="path19"
     style="stroke-width:0.993872" />
  <path
     fill="#ffdd59"
     d="m 2864.3491,1753.76 c 25.4821,-22.6908 19.9266,-96.339 15.3946,-125.8181 -1.0336,-6.7188 -1.8386,-14.6799 -8.9545,-19.6097 -7.0562,-2.3953 -13.2578,-2.932 -20.9998,-3.5184 -0.3081,-3.4886 -0.03,-3.6476 3.3095,-6.0926 6.8277,-5.0093 22.739,-9.134 32.4389,-9.0743 14.858,0.089 30.1929,6.838 39.376,14.6998 27.4897,23.5654 27.0424,69.8116 21.785,98.5553 -3.6474,19.9277 -14.1423,41.8433 -38.0045,54.0981 -11.6776,5.9932 -24.5478,7.9512 -38.6803,5.9038 -6.3705,-0.9244 -11.6478,-2.5941 -17.1537,-5.0292 3.9655,-2.2065 6.8079,-2.9221 11.4888,-4.1147 z"
     id="path20"
     style="stroke-width:0.993872" />
  <path
     fill="#7b72e4"
     d="m 2232.6638,1098.1424 c 5.158,-0.2286 10.6242,-0.5764 15.7424,0.07 12.0752,1.5406 23.4348,7.9015 30.3122,14.8787 14.4703,14.6501 17.9786,37.5099 12.6516,54.6348 -5.0686,16.3398 -15.007,25.6626 -34.3273,34.8562 -4.9592,0.2087 -10.0576,0.477 -15.0268,0.2286 -11.8963,-0.5964 -24.0013,-7.7227 -30.7296,-14.2427 -15.0965,-14.5904 -18.9426,-37.7782 -13.9436,-55.1218 4.8102,-16.7273 15.3648,-26.3483 35.3211,-35.3034 z"
     id="path21"
     style="stroke-width:0.993872" />
  <path
     fill="#fd914e"
     d="m 2235.4764,1109.4133 c 1.0932,0.04 2.1964,0.05 3.2896,0.1292 11.9062,0.8647 20.9502,5.1981 28.0959,11.8572 12.264,11.42 15.2654,28.1871 11.8565,42.0023 -3.3592,13.6761 -10.4751,20.5738 -26.3368,28.3561 -0.7156,-0.02 -1.4311,0.01 -2.1467,-0.05 -9.9781,-0.815 -18.883,-4.731 -25.4026,-9.9987 -13.2677,-10.7043 -17.2232,-27.0242 -14.9076,-40.8096 2.4548,-14.6104 9.1434,-22.7305 25.5517,-31.4868 z"
     id="path22"
     style="stroke-width:0.993872" />
  <path
     fill="#7b72e4"
     d="m 2691.9873,1135.0162 c 2.902,-0.01 5.7444,-0.03 8.6265,0.159 13.2778,0.8448 26.3666,6.202 34.536,13.6065 12.8305,11.6188 15.1263,28.5549 12.6119,42.718 -3.7369,21.0906 -17.0544,36.019 -40.3599,48.6316 -5.5854,0.099 -11.459,0.2982 -16.955,-0.5168 -12.413,-1.8388 -23.8422,-7.9811 -30.65,-15.4353 -12.3535,-13.5271 -12.8901,-32.8286 -8.0203,-48.0651 5.8239,-18.2183 18.0581,-31.1589 40.2108,-41.0979 z"
     id="path23"
     style="stroke-width:0.993872" />
  <path
     fill="#fd914e"
     d="m 2692.7426,1147.8177 c 11.6578,-0.09 20.9502,1.0634 29.6861,6.8678 10.157,6.7586 12.8106,17.0653 12.3931,26.5173 -0.8149,18.6158 -11.2999,33.8325 -29.9841,46.624 -10.4155,0.7255 -20.4433,-0.5864 -28.6425,-5.4367 -9.5012,-5.6155 -12.5522,-14.3619 -13.0193,-22.7703 -1.1529,-20.693 9.7595,-37.2415 29.5667,-51.8021 z"
     id="path24"
     style="stroke-width:0.993872" />
  <path
     fill="#7b72e4"
     d="m 2376.2043,1139.8267 c 5.2077,-20.057 8.2091,-49.9933 27.907,-65.5578 l 5.2177,-1.0436 c 8.2588,4.0651 10.1968,10.4062 11.777,17.1945 3.3294,14.2426 9.1433,73.2208 -1.1827,83.8357 -11.1707,-9.1539 -11.2602,-30.0258 -11.9658,-41.4656 -4.5419,-5.3472 -1.7691,-15.6043 -5.1282,-22.2833 l -3.1108,0.8249 c -4.1343,13.0698 -6.5295,28.6045 -18.9227,39.2194 -3.1008,0.5665 -4.6909,1.6002 -7.5234,0.1093 -12.6913,-6.6889 -25.5317,-39.3386 -35.1521,-51.3251 2.4249,24.4997 9.2924,51.6531 3.9753,75.9938 l -5.1481,2.3456 0.01,0.3081 4.6512,-1.6996 -4.0649,2.7432 c -13.6851,-13.9345 -16.1101,-76.938 -12.1546,-94.2319 0.646,-2.7928 1.5106,-4.9198 3.8064,-7.2753 l 4.3928,-0.8647 c 22.6297,9.7104 34.4862,46.1469 42.6159,63.1724 z"
     id="path25"
     style="stroke-width:0.993872" />
  <path
     fill="#da8874"
     d="m 2399.7185,1111.3315 c 1.3218,-6.7486 3.0611,-12.8909 6.132,-19.3612 1.0933,13.4475 3.3195,27.3721 2.107,40.8196 -4.5419,-5.3472 -1.7691,-15.6043 -5.1282,-22.2833 z"
     id="path26"
     style="stroke-width:0.993872" />
  <path
     fill="#7b72e4"
     d="m 2727.7159,2214.5528 c 4.3133,0.2882 8.9744,0.7355 13.0591,1.7791 6.3108,1.5803 11.4689,4.8701 14.3411,9.1439 7.1159,10.3664 -1.4311,25.6128 -5.6947,35.85 7.3743,3.6178 15.6728,6.6393 23.5441,9.7105 7.1159,2.7729 10.9422,5.049 15.3449,10.0483 3.8163,4.3235 5.8835,7.7524 4.2536,12.7617 l -4.353,0.4771 c -9.6502,-2.0375 -16.0605,-6.9275 -23.6634,-11.42 -8.3582,-4.9496 -14.4604,-9.5712 -26.1877,-8.8457 -3.0312,1.1331 -5.3369,2.0375 -7.3743,4.0452 -3.9753,3.906 -3.7666,4.3036 -2.8523,8.8159 5.5059,8.965 19.7576,25.9607 14.8579,35.6711 l -4.3928,0.984 c -17.7003,-7.1561 -45.975,-67.1778 -55.2575,-83.8853 13.715,-9.8396 27.6785,-17.9598 44.375,-25.1358 z"
     id="path27"
     style="stroke-width:0.993872" />
  <path
     fill="#fd914e"
     d="m 2726.1953,2227.6226 c 4.7009,0.3479 7.9706,0.9641 11.9162,2.773 5.0984,2.3456 8.1693,5.0888 8.5072,9.5812 0.9044,12.1157 -12.7609,21.7068 -24.19,29.2207 l -4.9295,-1.5206 c -7.7321,-7.9115 -11.6975,-17.0753 -16.3586,-26.0502 7.8613,-5.1087 16.5077,-9.4918 25.0547,-14.0041 z"
     id="path28"
     style="stroke-width:0.993872" />
  <path
     fill="#7b72e4"
     d="m 2475.0716,2298.3884 6.9668,1.8189 c 2.4846,2.1667 3.5281,3.7569 4.2834,6.51 4.5121,16.3895 11.8069,77.5343 -1.7292,90.5743 -2.4648,2.3655 -3.6176,1.7592 -7.3545,2.0077 -20.5029,-9.5415 -42.2283,-58.9086 -52.2561,-76.6597 -1.0038,26.8453 9.8788,59.7833 -0.1988,85.5849 -2.256,-1.1728 -4.4425,-2.1766 -6.3109,-3.6973 -10.7533,-8.7364 -7.573,-57.8252 -7.2749,-70.7757 0.1988,-8.9849 -1.0733,-21.3789 8.5371,-27.9486 l 5.2276,0.7057 c 24.1205,15.0974 40.7077,57.219 52.2462,78.4288 0.3181,-28.9325 -4.4226,-57.5668 -2.1367,-86.549 z"
     id="path29"
     style="stroke-width:0.993872" />
  <path
     fill="#7b72e4"
     d="m 1954.8356,2080.8133 c 3.1504,0.4572 6.291,0.9343 9.3918,1.5406 13.546,2.6537 25.0746,10.7143 31.2563,19.4805 5.5555,7.8816 8.2985,16.2602 4.3331,24.7481 l -3.6772,1.2126 c -10.5645,-6.3411 -11.8068,-18.9338 -19.5986,-26.9844 -3.9256,-4.0452 -10.7633,-6.4405 -17.6406,-6.6393 -8.2688,-0.2385 -15.2654,2.5742 -21.3279,6.2516 -14.8479,9.0247 -24.7168,24.1022 -25.8796,37.818 -0.5665,6.7188 0.8547,16.4391 8.2489,21.3888 7.1258,4.7707 13.8044,5.0291 23.1764,4.89 6.7481,-1.8686 10.5148,-5.8144 15.0467,-9.621 -3.9952,-5.7249 -10.2763,-12.6325 -7.9209,-19.1227 l 4.035,0.4274 c 9.6999,5.7646 14.8679,12.871 21.0992,20.5141 l -1.2621,1.153 c -8.7955,7.9611 -27.7083,28.9523 -41.6519,30.1748 l -2.9915,-2.1766 c -2.3355,-19.391 -17.8394,-15.4154 -26.9231,-29.827 -7.9806,-12.6623 -6.947,-27.6504 0.4273,-40.3027 10.2267,-17.5225 27.9667,-27.71 51.8587,-34.9258 z"
     id="path30"
     style="stroke-width:0.993872" />
  <path
     fill="#7b72e4"
     d="m 2112.4587,2211.9786 5.7941,2.4052 c 11.9062,16.1311 -19.688,46.8824 -26.1082,63.8582 -3.2995,8.7265 -4.5915,18.6158 2.4846,26.6167 4.0549,4.572 8.8055,7.0766 16.1698,8.4979 37.6368,-3.3296 35.4404,-56.1555 56.1123,-67.9829 2.6734,-1.5306 2.5939,-0.8548 6.3904,-0.328 3.4685,3.7669 3.5082,3.9557 3.071,8.4482 -3.4089,7.1263 -6.9072,14.2227 -10.495,21.2993 -7.593,14.839 -21.5862,44.1094 -44.3353,49.9237 -6.3804,1.63 -11.6875,1.6896 -17.8792,-0.2584 -10.962,-3.4389 -20.3041,-11.7281 -24.6075,-19.4904 -15.0566,-27.1733 18.0383,-68.5793 33.403,-92.9895 z"
     id="path31"
     style="stroke-width:0.993872" />
  <path
     fill="#7b72e4"
     d="m 2138.1992,1135.4237 c 2.9517,1.0237 4.9394,1.2424 6.6588,3.3793 9.511,11.8473 -7.0166,41.8333 -12.264,54.754 12.8205,3.2501 27.3107,6.3809 39.0182,11.3504 7.6923,3.26 16.4083,7.4145 18.7637,13.7258 l -3.8363,1.9977 c -22.421,0.4572 -43.4308,-9.2433 -62.8505,-16.3 7.9011,14.0637 17.5016,29.1611 21.3179,44.0597 -3.1902,0.7753 -5.1183,1.2821 -8.5569,0.9542 -3.2996,-0.3181 -4.1344,-1.63 -5.9134,-3.4588 -15.3747,-15.7633 -41.463,-67.8239 -37.2293,-86.4496 l 2.7927,-1.312 c 13.6653,8.8955 18.9923,26.0999 24.6572,38.3646 5.1382,-20.4445 10.9521,-40.8096 17.4419,-61.0653 z"
     id="path32"
     style="stroke-width:0.993872" />
  <path
     fill="#7b72e4"
     d="m 2575.211,1090.0322 c 4.9891,1.4312 5.7742,2.0574 9.193,5.049 4.681,14.3718 -4.0847,30.1252 -9.4216,44.0299 13.6454,-9.4222 28.6027,-22.3926 46.3329,-27.6504 5.1083,-1.5206 5.6052,-1.9977 10.8726,-0.3975 -0.07,0.5963 -0.03,1.2125 -0.2087,1.789 -3.7866,12.6822 -31.0079,24.6786 -44.5937,31.8347 l 31.6539,52.796 -2.743,4.3832 c -3.7766,0.8448 -3.5182,1.5107 -6.3805,0.2683 -16.8655,-7.3549 -29.3382,-41.7141 -36.0665,-55.2212 -3.0113,9.6309 -8.1395,38.4143 -17.5115,43.7317 -0.4074,-0.3976 -0.8845,-0.7554 -1.2124,-1.1927 -12.4727,-16.3298 13.8442,-80.6253 20.0855,-99.42 z"
     id="path33"
     style="stroke-width:0.993872" />
  <path
     fill="#ffdd59"
     d="m 1931.7983,1595.9383 c -8.5073,17.264 13.4566,34.6971 5.9432,51.2853 -2.3952,5.2776 -7.8414,9.5613 -14.6989,12.2349 -6.46,2.5146 -12.6616,2.8426 -19.7278,1.2325 -8.7955,-2.0077 -15.8517,-8.6569 -19.3898,-14.3818 -6.2811,-10.1477 -5.9034,-22.3131 0.4969,-32.3813 7.7222,-12.1455 20.3638,-17.3436 37.2889,-21.9255 l 9.4813,1.4312 z"
     id="path34"
     style="stroke-width:0.993872" />
  <path
     fill="#7b72e4"
     d="m 2470.5794,1074.8255 c 9.7496,0.5367 19.6184,0.9641 29.3183,1.8586 10.6043,0.984 24.2,3.8464 30.8985,10.0285 l -1.2125,2.4251 c -16.4778,3.7768 -29.9941,0.9343 -46.4123,-1.5803 l -3.8363,31.4172 c 11.7472,0.7057 28.6127,0.9939 37.0405,7.5338 2.4448,1.9083 1.5901,1.7692 1.0833,4.4527 -9.9981,3.7072 -27.1418,1.6996 -38.3523,1.2225 -2.9418,5.4963 -2.107,13.0797 -2.5045,18.9935 -0.6659,5.3968 -2.4349,8.4382 1.7094,13.1095 14.0827,4.5223 28.2052,5.7845 43.2619,7.7525 l 1.1031,4.7707 -5.7344,4.1943 c -17.2233,2.9121 -39.9723,-2.5345 -57.0167,-5.0292 2.0672,-33.733 6.8476,-67.4859 10.654,-101.1494 z"
     id="path35"
     style="stroke-width:0.993872" />
  <path
     fill="#7b72e4"
     d="m 2819.1294,2140.527 c 3.2995,2.286 3.6673,3.3196 5.1183,6.3311 -3.3294,13.3581 -19.3899,23.2176 -31.7036,32.9777 l 20.2843,23.635 c 7.2551,-7.2555 14.1225,-16.1509 26.6449,-19.0332 l 3.1207,1.9083 c -0.7255,10.7639 -12.2442,17.8405 -21.7751,25.4538 l 23.405,26.8751 30.5308,-27.5808 5.3269,-1.4411 c 2.1766,1.4212 4.1344,1.8188 4.0152,4.1147 -0.7057,13.3382 -29.9445,32.8385 -42.4669,42.8968 l -67.4818,-76.7491 z"
     id="path36"
     style="stroke-width:0.993872" />
  <path
     fill="#7b72e4"
     d="m 2312.5686,2292.5741 c 5.3071,0.5069 10.5944,1.0635 15.8717,1.6598 13.7448,1.5803 31.6538,4.1048 40.3102,12.5828 l -1.9778,2.4351 c -15.0567,2.2462 -28.3443,-0.7653 -42.8147,-3.4986 -0.9143,10.436 -2.8026,20.872 -4.3927,31.2682 15.7722,1.6797 30.2724,1.2026 40.976,10.3565 l -0.5168,3.3097 c -12.2938,4.8303 -29.7556,-3.6675 -39.8729,0.6261 -5.1878,6.0032 -4.7605,13.1195 -5.4562,19.9774 -0.9143,4.1446 -1.292,6.9673 -0.2484,11.1715 10.6341,5.7945 27.9468,2.6338 39.1971,7.5437 5.4263,2.3854 5.6549,3.4489 6.8475,7.5239 l -2.9914,2.3356 c -18.9228,2.9817 -42.0196,-3.2401 -60.5746,-6.5796 z"
     id="path37"
     style="stroke-width:0.993872" />
  <path
     fill="#7b72e4"
     d="m 2884.375,2063.5294 c 2.2163,1.4213 3.9655,2.6338 4.8699,4.7409 4.7605,11.2112 -17.3426,30.473 -25.502,39.1001 l 24.8361,19.2519 c 6.3308,-8.7762 11.8168,-17.9996 23.3155,-23.9729 l 3.3592,0.7951 c 1.2622,11.5392 -9.4316,21.2894 -17.6109,30.642 l 27.7481,22.333 24.7367,-31.5564 c 2.7728,-2.3257 3.8461,-2.2164 7.7619,-3.1904 l 3.3591,1.6001 c 1.9579,14.4017 -24.3292,38.6529 -35.0428,50.9972 l -80.5309,-63.252 c 12.7311,-15.8925 25.6411,-31.7253 38.7001,-47.4886 z"
     id="path38"
     style="stroke-width:0.993872" />
  <path
     fill="#7b72e4"
     d="m 2647.5924,2256.4458 c 5.0487,2.6239 5.2773,2.3655 6.3805,6.679 -7.8712,10.108 -28.6624,14.9483 -42.8047,19.7091 4.4126,9.5712 7.6923,19.5401 11.3397,29.2704 9.6899,-4.3533 18.6544,-9.1042 30.6302,-7.9711 l 2.6635,2.6239 c -0.2485,0.6261 -0.3976,1.2722 -0.7355,1.8685 -4.2636,7.494 -18.9824,10.764 -28.7021,13.8153 l 10.7434,28.7834 c 3.2896,8.0804 3.7965,12.0262 -1.451,19.709 l -2.4747,-0.05 c -17.422,-16.0515 -31.1867,-72.515 -38.72,-94.4505 17.3723,-7.007 35.4602,-13.3481 53.1307,-19.9873 z"
     id="path39"
     style="stroke-width:0.993872" />
  <path
     fill="#7b72e4"
     d="m 2203.902,2262.1011 c 19.1116,1.1529 46.6311,10.4061 61.5089,18.904 5.5357,3.1705 10.0179,6.1324 10.6241,11.2708 l -4.6114,1.2822 c -9.7595,-0.1789 -17.0444,-3.3892 -25.4423,-6.52 l -19.9365,59.1968 c -2.7827,9.8098 -4.3331,17.4131 -15.2654,24.5295 -9.5508,-19.6097 14.3014,-67.0983 22.6795,-87.8709 -3.8661,-1.2523 -7.7122,-2.5245 -11.5385,-3.8166 -3.2797,-1.0933 -7.2252,-2.1269 -10.0776,-3.7371 -6.4599,-3.6277 -6.5196,-7.9313 -7.9408,-13.2387 z"
     id="path40"
     style="stroke-width:0.993872" />
  <path
     fill="#7b72e4"
     d="m 2041.5482,2155.525 c 3.8461,2.0076 5.0388,3.3494 6.8972,6.4504 -1.6796,21.6969 -37.4976,52.4482 -53.8165,70.2788 10.0875,7.3151 29.8848,18.914 32.5185,29.2704 1.2125,4.7906 -1.4112,6.0032 -5.5555,9.2334 -16.0307,-12.0064 -30.511,-25.1756 -45.3689,-37.9075 21.4869,-25.8911 43.2619,-51.6729 65.3252,-77.3255 z"
     id="path41"
     style="stroke-width:0.993872" />
  <path
     fill="#ffd557"
     d="m 2034.2435,1744.7254 c 6.7382,-3.1805 10.0576,-5.218 11.4391,-11.0721 1.5404,-6.5299 -0.8349,-15.803 4.83,-21.1303 l 4.5419,-0.4175 c 4.2536,7.7226 -2.8225,24.3506 -7.5035,31.7651 -1.1231,1.7791 -1.8386,2.6041 -3.2399,4.4229 -2.8623,-2.7929 -5.5258,-2.5941 -10.0676,-3.5681 z"
     id="path42"
     style="stroke-width:0.993872" />
</svg>
