<svg version="1.1" id="Layer_1" xmlns="http://www.w3.org/2000/svg" xmlns:xlink="http://www.w3.org/1999/xlink" x="0px" y="0px"
	 width="100%" viewBox="0 0 922 922" enable-background="new 0 0 922 922" xml:space="preserve">
<path fill="#FFFFFF" opacity="1.000000" stroke="none" 
	d="
M510.000000,923.000000 
	C340.000000,923.000000 170.500000,923.000000 1.000000,923.000000 
	C1.000000,615.666687 1.000000,308.333344 1.000000,1.000000 
	C308.333344,1.000000 615.666687,1.000000 923.000000,1.000000 
	C923.000000,308.333344 923.000000,615.666687 923.000000,923.000000 
	C785.500000,923.000000 648.000000,923.000000 510.000000,923.000000 
M688.781189,80.186775 
	C687.953491,80.123100 687.125793,80.003670 686.298096,80.003632 
	C539.798279,79.995972 393.298462,79.994408 246.798660,80.033737 
	C245.412155,80.034111 244.025803,80.582993 242.113327,81.277603 
	C169.156479,206.656479 96.227249,332.051453 23.127487,457.346954 
	C20.577478,461.717743 20.834610,464.680084 23.279642,468.872864 
	C95.595840,592.882690 167.799240,716.958374 239.869690,841.111145 
	C242.137741,845.018311 244.545074,846.112549 248.842834,846.109192 
	C393.661255,845.994751 538.479736,845.987427 683.298096,846.123352 
	C687.737244,846.127502 689.981262,844.751404 692.178284,840.968079 
	C764.603699,716.249817 837.146301,591.599548 909.762695,466.992340 
	C911.501709,464.008240 911.442932,461.912689 909.722534,458.961182 
	C849.072510,354.907684 788.529297,250.791962 727.937195,146.704727 
	C715.142639,124.725937 702.217163,102.823410 688.781189,80.186775 
z"/>
<path fill="#173049" opacity="1.000000" stroke="none" 
	d="
M689.352051,80.885757 
	C702.217163,102.823410 715.142639,124.725937 727.937195,146.704727 
	C788.529297,250.791962 849.072510,354.907684 909.722534,458.961182 
	C911.442932,461.912689 911.501709,464.008240 909.762695,466.992340 
	C837.146301,591.599548 764.603699,716.249817 692.178284,840.968079 
	C689.981262,844.751404 687.737244,846.127502 683.298096,846.123352 
	C538.479736,845.987427 393.661255,845.994751 248.842834,846.109192 
	C244.545074,846.112549 242.137741,845.018311 239.869690,841.111145 
	C167.799240,716.958374 95.595840,592.882690 23.279642,468.872864 
	C20.834610,464.680084 20.577478,461.717743 23.127487,457.346954 
	C96.227249,332.051453 169.156479,206.656479 242.793396,81.111176 
	C247.276337,80.963768 251.079208,80.999344 254.882080,80.999413 
	C397.206543,81.001953 539.531006,81.001801 681.855469,80.996124 
	C684.354309,80.996025 686.853210,80.924133 689.352051,80.885757 
M291.831818,356.983551 
	C293.553223,356.963470 295.274658,356.943390 297.818848,356.966187 
	C298.913910,356.911530 300.008972,356.856873 301.708832,356.883240 
	C302.114532,356.859039 302.520264,356.834808 303.863525,356.950470 
	C319.239929,356.949768 334.616364,356.949036 350.930115,356.991302 
	C427.970306,356.983856 505.010468,356.976379 582.976929,357.030579 
	C625.234131,357.060730 667.491394,357.103760 709.748596,357.104767 
	C715.015625,357.104889 716.867615,354.953857 716.878601,349.237091 
	C716.889465,343.577637 714.972534,341.207367 709.796448,341.202606 
	C704.823364,341.197998 699.851624,341.773712 694.876160,341.834717 
	C660.289612,342.258728 625.702271,342.614502 591.115173,342.994293 
	C588.121521,343.027161 585.127991,343.075500 581.183350,343.037048 
	C570.243408,343.346283 559.305359,343.774109 548.363220,343.941193 
	C521.791138,344.347046 495.217743,344.677277 468.643951,344.954193 
	C431.097198,345.345428 393.549652,345.661224 355.065460,345.959839 
	C337.361511,346.049286 319.657532,346.138733 301.340942,346.104279 
	C300.927551,346.135132 300.514160,346.165985 299.292664,346.173279 
	C296.178131,346.723053 293.063568,347.272797 289.378418,347.641815 
	C288.829041,347.396179 288.279633,347.150543 287.868744,345.996582 
	C288.247192,340.328827 288.625671,334.661041 289.687378,328.657593 
	C292.793610,328.114502 295.899872,327.571442 299.856293,327.003632 
	C308.227783,326.010376 316.599030,325.015228 324.970795,324.024384 
	C333.504608,323.014374 342.039215,322.011261 350.572906,321.000153 
	C358.288025,320.086029 366.001831,319.160797 373.717163,318.248444 
	C385.710480,316.830139 397.699860,315.376526 409.699707,314.015625 
	C422.521545,312.561401 435.359802,311.251007 448.179535,309.779114 
	C461.483459,308.251617 474.765411,306.531158 488.072418,305.032593 
	C501.384521,303.533417 514.721313,302.254578 528.036926,300.784943 
	C538.876343,299.588593 549.708679,298.318695 560.528137,296.954590 
	C567.042480,296.133270 573.526245,295.069061 580.667358,294.123047 
	C581.095886,294.150024 581.524353,294.177002 582.175903,294.467896 
	C582.449463,294.363342 582.723083,294.258789 583.879150,294.066833 
	C600.035400,292.315460 616.203003,290.662079 632.345276,288.789795 
	C656.866882,285.945557 681.368774,282.932281 705.883667,280.029877 
	C712.003174,279.305420 713.445007,277.594940 712.980652,271.208466 
	C712.565063,265.493347 710.467834,263.446411 704.609924,264.123871 
	C690.449158,265.761566 676.322388,267.693542 662.182007,269.507965 
	C642.616882,272.018463 623.042664,274.461212 603.491089,277.072998 
	C594.976868,278.210327 586.509155,279.695465 577.121216,280.989136 
	C575.289185,281.020752 573.435120,280.880035 571.628723,281.111664 
	C559.161011,282.710419 546.701355,284.373199 534.242737,286.042145 
	C522.441528,287.623016 510.648834,289.267548 498.844788,290.826599 
	C488.018524,292.256500 477.184265,293.626617 466.349609,294.992157 
	C454.207275,296.522552 442.052826,297.958893 429.918152,299.546906 
	C419.256104,300.942200 408.627960,302.600800 397.959839,303.944458 
	C383.349701,305.784607 368.702637,307.332794 354.095734,309.196899 
	C337.039856,311.373535 320.010223,313.755646 302.236084,316.031647 
	C301.502563,316.068115 300.769012,316.104553 299.242249,316.076233 
	C297.154114,316.415405 295.065948,316.754578 292.274017,317.031219 
	C291.803833,317.008575 291.333679,316.985931 290.911316,316.149841 
	C292.100281,311.159393 293.226318,306.152893 294.495270,301.182861 
	C295.858246,295.844391 295.077698,294.581604 289.439636,294.555695 
	C274.345337,294.486298 259.249939,294.519196 244.155838,294.629456 
	C238.390106,294.671570 237.766037,295.718597 239.107193,301.175385 
	C240.686829,307.602570 242.111526,314.067810 243.215988,321.294464 
	C241.917877,322.171448 240.709015,323.602356 239.306046,323.828369 
	C233.611664,324.745667 227.865875,325.375244 222.122803,325.948151 
	C218.225296,326.336914 215.171829,329.149933 216.131897,332.239746 
	C217.169891,335.580322 219.642075,336.861664 223.823486,335.263824 
	C224.547714,335.210815 225.271942,335.157806 226.318878,335.495392 
	C226.876831,335.330139 227.434784,335.164917 228.650955,335.036591 
	C229.089157,335.004333 229.527344,334.972046 230.705795,334.934509 
	C233.821198,334.337463 236.936600,333.740387 240.073715,333.125702 
	C240.073715,333.125702 240.105087,333.130341 240.869064,333.098938 
	C242.368179,333.067566 243.867310,333.036194 245.444885,333.806458 
	C245.522766,334.875732 245.600647,335.945038 245.253891,337.575256 
	C245.424500,339.388489 245.595108,341.201691 245.832642,343.807709 
	C245.806488,344.868256 245.780350,345.928772 244.854004,346.958588 
	C237.550766,346.992920 230.245453,346.936493 222.945206,347.102448 
	C219.627884,347.177887 216.120575,348.169342 216.238541,352.147675 
	C216.349838,355.899933 219.450516,357.085297 223.035431,357.053162 
	C230.172333,356.989136 237.310547,357.074036 244.273941,357.932007 
	C242.527939,366.027405 240.840454,374.136047 239.014023,382.213226 
	C237.916687,387.066071 238.744492,388.575409 243.468567,388.603912 
	C259.084198,388.698212 274.701111,388.708282 290.316589,388.604706 
	C294.856384,388.574585 295.630707,387.085693 294.570007,382.540558 
	C292.687836,374.475189 290.967499,366.372040 289.734497,357.778442 
	C290.146423,357.498413 290.558319,357.218384 291.831818,356.983551 
M543.854675,686.238098 
	C541.618103,686.128540 539.200012,685.484253 537.228088,686.153870 
	C536.352661,686.451172 536.075684,689.397095 536.047485,691.149170 
	C535.927368,698.628723 536.125916,706.115173 535.897095,713.589661 
	C535.852783,715.035583 534.415649,716.438965 533.412170,718.236023 
	C534.287109,718.395264 535.666199,718.646179 537.902039,718.927246 
	C539.616455,718.953247 541.330872,718.979187 543.884155,719.011292 
	C545.292847,718.983215 546.701477,718.955078 548.933777,718.959900 
	C556.482056,719.015625 559.286560,715.734558 559.129456,707.031738 
	C558.992920,699.469788 555.929077,696.700806 547.430786,697.036499 
	C546.833435,696.249084 545.942505,695.543884 545.694519,694.658630 
	C544.990173,692.144287 544.548340,689.556274 544.000000,687.000000 
	C544.000000,687.000000 544.003296,686.997009 543.854675,686.238098 
M697.902649,640.271118 
	C703.232544,640.271118 708.562439,640.271118 713.892273,640.271118 
	C714.023743,639.856689 714.155212,639.442322 714.286621,639.027893 
	C710.863037,636.227051 707.439453,633.426208 703.951111,630.572449 
	C701.343445,633.869019 699.246887,636.519470 696.210449,638.988403 
	C691.031128,638.988403 685.851868,638.988403 680.672546,638.988403 
	C680.668213,639.436584 680.663940,639.884766 680.659668,640.332947 
	C686.055237,641.304138 691.480835,641.505859 697.902649,640.271118 
M695.261047,623.032593 
	C693.504883,623.334351 691.748718,623.636108 689.077820,623.841187 
	C685.640564,623.841187 682.203308,623.841187 678.568909,623.841187 
	C678.568909,615.105042 678.568909,606.895508 678.568909,598.018799 
	C689.543335,598.018799 700.177185,598.018799 710.811035,598.018799 
	C710.928650,597.646057 711.046204,597.273315 711.163818,596.900574 
	C707.997681,594.179504 704.831543,591.458496 701.012695,588.176453 
	C697.362488,598.444641 689.862183,597.721558 681.487854,595.447449 
	C686.569702,592.100647 691.651550,588.753784 697.442688,584.939880 
	C692.409058,583.407532 688.086548,582.091614 683.276367,580.627319 
	C682.207092,585.395569 681.504517,589.470215 680.300842,593.390930 
	C679.872803,594.785339 678.306030,596.733887 677.123962,596.834045 
	C672.433960,597.231201 667.690552,596.997375 664.173462,596.997375 
	C664.516602,593.138794 666.194397,589.004211 664.803101,586.875488 
	C661.835938,582.335449 656.369812,582.022766 650.419067,582.338623 
	C652.153198,585.683594 653.684326,588.400208 654.982483,591.223877 
	C655.848999,593.108765 656.383911,595.146057 656.130615,596.974731 
	C649.874451,596.974731 643.618347,596.974731 637.362183,596.974731 
	C637.368652,597.488037 637.375061,598.001343 637.381531,598.514648 
	C643.998291,598.514648 650.615112,598.514648 658.132812,598.535767 
	C660.395264,598.535767 662.657776,598.535767 665.071899,598.535767 
	C665.071899,607.312744 665.071899,615.382080 665.071899,624.080078 
	C654.878235,624.080078 644.981445,624.080078 635.084595,624.080078 
	C635.092468,624.330261 635.100281,624.580444 635.108093,624.830627 
	C653.385925,624.830627 671.663696,624.830627 690.816101,625.015747 
	C692.890320,624.926758 694.964478,624.837830 697.962891,624.828247 
	C702.815979,624.828247 707.669006,624.828247 712.522095,624.828247 
	C712.634583,624.389099 712.747131,623.949951 712.859680,623.510803 
	C709.457947,620.786743 706.056213,618.062683 702.482727,615.201050 
	C700.141602,618.086548 698.097351,620.606018 695.261047,623.032593 
M414.247437,717.793274 
	C419.803986,720.218994 423.859863,719.558655 425.886719,716.578613 
	C423.339478,716.263123 420.409058,715.900208 417.235901,714.833008 
	C414.107025,710.302856 414.237366,705.471802 416.400879,700.729187 
	C416.959229,699.505249 418.785706,698.420654 420.180511,698.191895 
	C420.944977,698.066406 422.043793,699.842896 422.956818,700.795410 
	C423.966248,701.848511 424.885162,702.999268 425.987701,703.938232 
	C426.121857,704.052551 427.739838,702.869202 427.671722,702.707458 
	C427.014679,701.146484 426.510681,699.166077 425.267700,698.270752 
	C420.853516,695.090820 412.960052,697.187134 410.013641,702.019653 
	C406.542938,707.711975 408.062347,713.888000 414.247437,717.793274 
M279.991516,622.796021 
	C286.678986,622.796021 293.366425,622.796021 300.053894,622.796021 
	C300.186615,622.360840 300.319336,621.925720 300.452026,621.490540 
	C296.181488,617.501709 291.910980,613.512939 287.387177,609.287598 
	C284.317108,613.611084 281.665375,617.345520 278.079468,620.983765 
	C257.743439,620.983765 237.407379,620.983765 217.071350,620.983765 
	C217.051559,621.444946 217.031769,621.906128 217.011993,622.367310 
	C217.583328,622.552368 218.155167,622.900635 218.725937,622.898926 
	C238.841873,622.838684 258.957703,622.745544 279.991516,622.796021 
M576.543701,622.816467 
	C576.385742,622.174316 576.227844,621.532166 575.773926,620.295593 
	C571.925598,616.702148 568.077209,613.108765 564.152039,609.443542 
	C560.843750,613.691040 557.940002,617.419373 554.108154,620.974426 
	C533.887573,620.974426 513.667053,620.974426 493.446472,620.974426 
	C493.425171,621.415649 493.403839,621.856873 493.382538,622.298096 
	C493.957428,622.503967 494.532806,622.891113 495.107147,622.889587 
	C515.097351,622.836121 535.087524,622.746033 555.994690,622.801453 
	C562.639526,622.766174 569.284363,622.730896 576.543701,622.816467 
M524.554077,492.736145 
	C531.064148,492.495239 527.581116,486.712341 529.896362,484.014069 
	C527.627869,482.338318 525.704529,480.917542 523.832153,479.534424 
	C522.071533,481.107758 520.753845,482.285339 519.436096,483.462891 
	C519.845581,483.465057 520.255005,483.467194 520.664490,483.469360 
	C520.664490,485.586609 520.501099,487.721893 520.731628,489.813721 
	C520.851562,490.901917 521.666870,491.913422 522.197693,493.713318 
	C521.012268,495.120117 519.826904,496.526917 519.258728,497.201202 
	C522.959045,502.750488 518.985718,509.353088 521.439514,514.702393 
	C530.559509,516.322693 526.716858,508.633148 528.455383,504.673279 
	C530.952759,504.673279 533.333069,504.673279 536.134094,504.673279 
	C534.493835,502.595947 533.226624,500.991028 531.955566,499.381348 
	C530.415833,500.823120 529.446472,501.730743 527.761658,503.308350 
	C528.152222,500.900146 528.378235,499.506775 528.522095,498.619720 
	C526.811768,496.562653 525.311401,494.758179 524.554077,492.736145 
M432.838409,512.051331 
	C436.228363,511.297913 439.618347,510.544525 444.301697,509.503693 
	C433.769562,503.990479 440.620148,495.585999 438.079681,488.798401 
	C440.117004,489.203094 441.663727,489.510315 443.126984,489.800934 
	C444.863007,487.214508 446.495636,484.782135 448.155792,482.308777 
	C440.797821,480.392456 433.605286,478.519196 425.615479,476.438324 
	C427.495544,478.713226 429.065948,480.397705 430.372314,482.266724 
	C431.307251,483.604401 432.871033,485.943359 432.432709,486.514648 
	C431.360107,487.912537 429.289642,488.544769 426.843567,489.923157 
	C426.843567,486.848297 426.843567,485.103088 426.843567,483.044739 
	C424.133240,483.044739 421.716156,483.044739 419.172028,483.044739 
	C418.966797,485.421173 418.776062,487.629852 418.549835,490.249847 
	C422.501404,490.249847 426.428772,490.249847 430.106750,490.249847 
	C430.106750,494.897522 430.106750,499.115295 430.106750,504.230865 
	C430.814636,504.668671 432.487122,505.703003 434.300262,506.824341 
	C433.426086,508.275543 432.670197,509.530365 431.130219,511.091156 
	C428.347839,509.968719 425.565460,508.846283 422.815216,507.736816 
	C423.138550,509.485382 423.560181,511.765747 423.046234,514.129761 
	C420.285431,514.129761 417.524597,514.129761 414.538025,514.129761 
	C414.538025,505.534943 414.538025,497.353424 414.538025,489.314362 
	C412.924042,488.590668 411.481567,487.943878 409.931152,487.248688 
	C415.839569,482.497009 421.419495,478.009521 427.352112,473.238403 
	C424.851044,472.447998 422.847565,471.533081 420.758972,471.253296 
	C419.353760,471.065063 417.259491,471.263763 416.448822,472.165863 
	C411.158997,478.051941 406.135742,484.177582 401.053833,490.191162 
	C402.799255,489.598694 404.865509,488.897278 406.829285,488.230682 
	C406.829285,497.362549 406.829285,506.226044 406.829285,515.034546 
	C404.098267,515.297424 401.895325,515.509460 399.129761,515.775696 
	C400.769043,518.818848 402.067017,521.228455 403.598999,524.072388 
	C410.651489,520.572327 417.285461,517.279968 424.434143,513.300232 
	C429.758789,517.875916 435.260223,522.143555 442.201416,523.901306 
	C443.862946,521.278992 445.334015,518.957275 447.099670,516.170593 
	C442.509094,515.455627 438.317688,514.898132 434.178467,514.077454 
	C433.354279,513.914001 432.729645,512.744080 432.838409,512.051331 
M571.316772,522.173035 
	C575.052856,519.076172 578.789001,515.979248 583.163574,512.353210 
	C586.721680,519.887695 593.487305,521.907471 600.806152,522.670837 
	C604.435425,523.049316 608.179749,522.533081 611.761841,523.108154 
	C617.896240,524.092834 619.751160,520.593811 621.002625,515.344604 
	C615.320557,515.344604 610.012146,515.527283 604.723206,515.285889 
	C600.598877,515.097656 596.347229,514.896118 592.434021,513.743469 
	C589.105347,512.763062 584.913452,510.787384 586.009766,506.318146 
	C587.993408,498.230713 590.833313,490.353271 593.331665,482.337189 
	C591.322754,480.635284 589.578247,479.157410 587.912048,477.745850 
	C585.954834,479.090698 584.338440,480.201355 582.722046,481.312012 
	C582.402344,481.049438 582.082642,480.786865 581.762878,480.524261 
	C582.690369,477.835205 583.617798,475.146149 584.679321,472.068329 
	C581.750000,471.537109 579.035828,471.044922 576.497559,470.584625 
	C574.224731,481.333130 572.055603,491.591492 569.695251,502.753967 
	C571.200195,501.230713 572.660706,500.274048 573.385803,498.922821 
	C575.737366,494.540802 577.735352,489.969757 580.057007,485.570465 
	C580.741638,484.273102 582.048035,483.303894 583.069458,482.184296 
	C583.517151,482.487152 583.964905,482.789978 584.412598,483.092834 
	C583.572815,497.243134 581.227844,510.886871 570.806641,522.088013 
	C570.831421,522.068726 570.879517,522.035278 570.877686,522.032227 
	C570.813416,521.926270 570.744324,521.823242 571.316772,522.173035 
M320.096832,514.992554 
	C320.096832,514.992554 320.027313,514.971008 320.265869,515.599609 
	C321.535370,516.916382 322.718842,518.333008 324.098816,519.521545 
	C325.453644,520.688354 327.008270,521.623230 328.475220,522.659912 
	C329.611115,520.750000 331.433105,518.936646 331.718750,516.907043 
	C332.125885,514.014160 331.630890,510.923004 331.113373,507.988495 
	C330.398712,503.935974 331.950989,501.543732 335.802521,500.606598 
	C338.523071,499.944611 341.292969,499.129395 344.054810,499.073639 
	C348.602020,498.981964 351.770782,502.358063 351.666534,506.542175 
	C351.555634,510.992767 348.049347,514.544495 343.568146,514.261353 
	C341.028870,514.100891 338.536896,513.191956 336.023285,512.621948 
	C337.057465,517.127625 341.540588,520.208130 346.662964,519.932861 
	C352.424316,519.623230 357.663055,514.717773 358.053375,509.267181 
	C358.697449,500.272461 351.168427,495.068176 340.816498,497.326233 
	C337.688141,498.008636 334.543030,498.613953 331.491119,499.237122 
	C330.191681,493.912537 331.118103,490.628387 336.440033,489.904755 
	C337.392700,489.775238 338.488831,489.373199 339.146851,488.721527 
	C340.087921,487.789520 340.686432,486.511597 341.431244,485.381409 
	C340.234070,484.626434 339.095154,483.390015 337.825165,483.236237 
	C336.175293,483.036499 334.421234,483.697723 332.586945,484.009613 
	C333.915527,474.124664 330.697266,471.500519 322.090912,474.972656 
	C325.864685,477.170990 328.348145,482.206512 326.038208,485.944794 
	C322.842651,491.116211 317.574677,487.502350 312.889160,487.005890 
	C314.564087,495.494110 321.016785,493.306519 326.234619,493.317810 
	C327.706512,499.125916 326.342163,503.345703 320.856720,505.745850 
	C318.579346,506.742279 316.221863,507.613068 314.091095,508.864838 
	C312.868530,509.583069 311.220032,510.939240 311.204834,512.028381 
	C311.182343,513.638062 312.132111,515.583435 313.307159,516.731628 
	C313.787750,517.201172 315.922668,515.909668 317.332886,515.520386 
	C318.241272,515.269653 319.200378,515.202759 320.096832,514.992554 
M374.840912,639.057190 
	C377.248535,638.970154 379.656128,638.883118 382.990692,638.859192 
	C389.096802,638.859192 395.202881,638.859192 402.314453,638.859192 
	C400.490326,644.099121 398.916656,648.619568 397.158234,653.670837 
	C391.742310,648.913574 389.734985,640.908508 381.139801,642.488403 
	C383.800476,655.926880 385.192688,657.637573 394.024902,658.300903 
	C393.283386,660.405457 392.564545,662.445496 391.845703,664.485535 
	C394.605591,663.818726 396.800598,662.828369 398.308075,661.200989 
	C407.674225,651.090149 413.290741,639.346619 413.285278,625.290588 
	C413.281891,616.626221 413.301605,607.961792 413.305023,599.297424 
	C413.308868,589.467468 413.306396,589.463013 423.126862,590.334412 
	C423.396790,590.358398 423.635895,590.729797 424.223145,591.214844 
	C424.223145,609.587036 424.030090,628.237610 424.345245,646.879578 
	C424.435303,652.207642 423.465820,655.547974 417.770203,655.157104 
	C419.494965,659.101379 421.112091,662.799500 422.723083,666.483582 
	C433.885223,665.468567 436.056793,661.215454 435.859802,652.484009 
	C435.454010,634.497681 435.716156,616.494080 435.877625,598.499207 
	C435.902252,595.751221 436.857758,593.011597 437.591461,589.177185 
	C435.387970,587.457458 432.317169,585.060852 428.947815,582.431213 
	C421.248138,594.142700 411.897858,586.008484 402.628265,584.885376 
	C402.628265,588.913330 402.628265,592.402100 402.628265,597.305237 
	C399.932556,594.319214 398.222717,592.425232 396.506012,590.523621 
	C395.476685,591.695129 394.550507,592.749207 392.961548,594.557678 
	C392.961548,590.392273 392.961548,587.199036 392.961548,583.527771 
	C389.215759,583.184448 385.657379,582.858337 381.603699,582.486816 
	C381.603699,600.932983 381.603699,618.720215 380.806641,636.822021 
	C378.501221,637.000610 376.195801,637.179199 373.025909,637.157349 
	C372.656952,635.505005 371.975708,633.854248 371.967438,632.200073 
	C371.886963,616.088196 371.919037,599.975769 371.919037,583.303101 
	C368.315765,582.894165 364.825439,582.497986 360.577881,582.015930 
	C360.577881,601.393066 360.577881,619.928040 360.577881,638.661560 
	C361.453674,638.869446 362.822906,639.194397 364.113861,639.500793 
	C365.398193,650.041992 357.687561,657.034180 354.004150,666.533081 
	C366.053375,663.470520 369.642334,652.198486 378.387482,646.457703 
	C373.932068,644.247681 370.194855,642.393921 366.457611,640.540100 
	C366.659271,639.986633 366.860931,639.433105 367.062592,638.879639 
	C369.359283,638.879639 371.655945,638.879639 374.840912,639.057190 
M596.037231,507.488037 
	C596.691467,506.735901 597.455322,506.053162 597.982666,505.220612 
	C602.494751,498.097656 602.093872,490.002655 602.638794,482.064392 
	C602.734680,480.667511 603.965149,479.348541 604.671692,477.993591 
	C605.190857,479.342224 606.131653,480.682373 606.158997,482.040894 
	C606.306519,489.363495 606.009399,496.701904 606.385620,504.008057 
	C606.475464,505.752594 608.584290,508.848694 609.706909,508.822784 
	C613.736145,508.729828 618.514587,511.172241 621.668335,506.582733 
	C622.064026,506.006927 622.039001,504.930664 621.832947,504.190979 
	C621.125244,501.650879 620.250366,499.157349 619.642212,497.274445 
	C618.418335,498.960846 616.959717,500.970734 615.501099,502.980621 
	C614.740112,502.753784 613.979065,502.526947 613.218018,502.300110 
	C613.218018,495.235291 612.509521,488.072540 613.468079,481.140259 
	C614.102783,476.549957 612.094543,475.038147 608.716431,472.896301 
	C605.368469,479.627136 600.467224,475.119659 595.765991,474.580261 
	C595.887390,486.948120 596.478638,499.089111 591.563904,510.761749 
	C592.897644,509.846100 594.231323,508.930420 596.037231,507.488037 
M643.899414,660.474976 
	C641.076294,662.062378 638.253235,663.649780 635.430115,665.237183 
	C646.448242,665.884644 656.142578,662.731873 665.356995,656.987976 
	C675.898804,650.416687 675.057129,638.709106 679.245483,628.697205 
	C674.189880,628.355286 669.303345,628.024719 664.242249,627.682434 
	C663.801453,630.885193 663.023071,633.373535 663.208923,635.787598 
	C663.753662,642.863770 660.288513,647.895020 655.299316,652.102051 
	C651.887878,654.978699 648.119568,657.432129 643.899414,660.474976 
M512.759399,475.682648 
	C512.847046,474.226166 512.934631,472.769684 513.046021,470.917267 
	C510.356079,470.654083 507.855835,470.409454 504.980316,470.128113 
	C504.980316,483.793335 504.853149,496.741425 505.048370,509.684662 
	C505.118011,514.301331 505.025208,518.161621 498.536835,517.076843 
	C503.757202,524.571716 506.203369,525.703430 510.045746,521.655396 
	C511.813934,519.792542 512.525940,516.319336 512.589050,513.550659 
	C512.869629,501.254028 512.741638,488.948120 512.759399,475.682648 
M679.903564,646.219055 
	C685.041504,655.961182 693.470154,661.861938 703.339172,665.915039 
	C704.634705,666.447021 707.305115,666.101746 708.002625,665.166382 
	C710.296631,662.090210 711.975952,658.555664 713.868225,655.237854 
	C713.372314,654.851013 713.141357,654.531006 712.852905,654.466064 
	C701.905579,651.999512 690.592407,650.716125 680.792908,644.515503 
	C680.711792,644.464111 680.120911,645.218506 679.903564,646.219055 
M460.047424,686.802246 
	C457.858276,686.908020 455.669159,687.013855 454.194580,687.085144 
	C454.194580,697.957581 454.194580,708.142151 454.194580,718.519165 
	C456.670685,718.519165 458.559662,718.519165 460.552673,718.519165 
	C460.552673,707.937561 460.552673,697.699707 460.047424,686.802246 
M474.934113,707.628662 
	C474.920685,706.134338 475.346161,704.448242 474.795776,703.188538 
	C473.859344,701.045166 472.670349,698.004944 470.928925,697.464783 
	C468.524414,696.719055 465.508820,697.943481 462.754974,698.324097 
	C462.685822,698.907288 462.616699,699.490479 462.547577,700.073669 
	C467.257629,699.063293 468.228058,701.437073 468.122284,705.077637 
	C467.993622,709.504639 468.091736,713.938354 468.091736,718.628906 
	C470.802246,718.628906 472.876434,718.628906 474.931305,718.628906 
	C474.931305,715.127014 474.931305,711.843445 474.934113,707.628662 
M382.752686,716.444641 
	C382.582672,712.010803 382.251251,707.575989 382.279633,703.143433 
	C382.324493,696.129089 382.087921,695.925659 375.731171,698.548889 
	C375.731171,705.279480 375.731171,711.742615 375.731171,719.575928 
	C378.776489,718.546448 380.716003,717.890808 382.752686,716.444641 
M509.103149,700.829895 
	C508.554474,693.477173 504.527283,698.874817 502.710205,698.609497 
	C502.710205,705.345093 502.710205,711.806763 502.710205,718.058472 
	C507.465790,719.718933 509.427704,718.791809 509.139648,714.184937 
	C508.881500,710.056519 509.096832,705.898499 509.103149,700.829895 
M592.055054,716.140747 
	C592.055054,709.893005 592.055054,703.645325 592.055054,696.701843 
	C589.058716,697.454529 586.921021,697.991516 585.718323,698.293640 
	C585.718323,705.452942 585.718323,711.906616 585.718323,719.859558 
	C588.681824,718.536926 590.354309,717.790466 592.055054,716.140747 
M491.509796,494.666901 
	C495.798523,494.171082 498.146179,492.301483 497.109711,487.494324 
	C496.840393,486.245270 497.612152,484.771729 498.019562,482.870026 
	C495.591797,482.033630 492.642456,481.017517 488.618835,479.631348 
	C489.434418,485.346954 490.091949,489.955017 491.509796,494.666901 
M354.370148,480.966431 
	C351.737732,480.966431 349.105316,480.966431 346.472931,480.966431 
	C354.486908,484.852570 354.959930,485.660980 351.929626,491.201385 
	C352.815735,491.201385 353.641998,491.085602 354.419525,491.230743 
	C355.385773,491.411194 356.307953,491.819702 357.255737,492.108063 
	C361.043640,493.260742 363.316620,491.699524 361.882233,488.207397 
	C360.726562,485.393738 357.462097,483.446289 354.370148,480.966431 
M700.152710,611.046875 
	C701.684387,610.967163 703.216125,610.887451 706.017212,610.741699 
	C701.905273,607.532837 698.833191,605.135498 695.176697,602.282043 
	C692.651123,609.692261 687.206421,611.021606 680.848389,611.049805 
	C686.974182,611.049805 693.099976,611.049805 700.152710,611.046875 
M656.179749,639.060425 
	C648.286499,639.060425 640.393250,639.060425 632.500000,639.060425 
	C632.524597,639.582825 632.549194,640.105164 632.573792,640.627563 
	C641.846191,640.627563 651.118530,640.627563 660.390869,640.627563 
	C660.440308,640.292786 660.489746,639.958008 660.539246,639.623230 
	C659.386108,639.437012 658.232971,639.250854 656.179749,639.060425 
M518.290161,477.895020 
	C523.461609,477.895020 528.633118,477.895020 533.804565,477.895020 
	C533.904602,477.330872 534.004639,476.766754 534.104614,476.202606 
	C532.061829,474.756836 530.019043,473.311066 527.450500,471.493225 
	C525.499573,476.926941 521.524109,477.437225 517.192505,477.207703 
	C517.137695,477.204803 517.062988,477.576599 516.997498,477.773499 
	C517.160583,477.803619 517.323669,477.833740 518.290161,477.895020 
M587.128357,691.412170 
	C589.489563,692.488892 591.587219,692.148193 591.745605,689.334351 
	C591.803345,688.307617 589.673584,686.195862 588.637756,686.255188 
	C585.852783,686.414551 585.432129,688.481384 587.128357,691.412170 
M503.199982,687.836426 
	C502.692780,690.476074 503.741547,692.283752 506.431976,691.735718 
	C507.447968,691.528809 508.042572,689.252991 508.829285,687.920349 
	C507.086395,687.671631 505.343506,687.422974 503.199982,687.836426 
M379.425629,691.970459 
	C380.245300,690.655029 381.239349,689.401428 381.745239,687.974792 
	C381.853180,687.670288 380.152863,686.180725 379.347168,686.230713 
	C378.285492,686.296448 376.330750,687.648010 376.416962,687.918152 
	C376.875183,689.354736 377.851562,690.626099 379.425629,691.970459 
z"/>
<path fill="#212D39" opacity="1.000000" stroke="none" 
	d="
M689.066650,80.536263 
	C686.853210,80.924133 684.354309,80.996025 681.855469,80.996124 
	C539.531006,81.001801 397.206543,81.001953 254.882080,80.999413 
	C251.079208,80.999344 247.276337,80.963768 243.056427,80.910278 
	C244.025803,80.582993 245.412155,80.034111 246.798660,80.033737 
	C393.298462,79.994408 539.798279,79.995972 686.298096,80.003632 
	C687.125793,80.003670 687.953491,80.123100 689.066650,80.536263 
z"/>
<path fill="#454F58" opacity="1.000000" stroke="none" 
	d="
M580.023743,294.113983 
	C573.526245,295.069061 567.042480,296.133270 560.528137,296.954590 
	C549.708679,298.318695 538.876343,299.588593 528.036926,300.784943 
	C514.721313,302.254578 501.384521,303.533417 488.072418,305.032593 
	C474.765411,306.531158 461.483459,308.251617 448.179535,309.779114 
	C435.359802,311.251007 422.521545,312.561401 409.699707,314.015625 
	C397.699860,315.376526 385.710480,316.830139 373.717163,318.248444 
	C366.001831,319.160797 358.288025,320.086029 350.572906,321.000153 
	C342.039215,322.011261 333.504608,323.014374 324.970795,324.024384 
	C316.599030,325.015228 308.227783,326.010376 299.433105,326.606995 
	C299.492981,324.746460 299.909088,323.256165 300.475311,321.825195 
	C301.246613,319.875916 302.132477,317.971954 302.969208,316.048584 
	C320.010223,313.755646 337.039856,311.373535 354.095734,309.196899 
	C368.702637,307.332794 383.349701,305.784607 397.959839,303.944458 
	C408.627960,302.600800 419.256104,300.942200 429.918152,299.546906 
	C442.052826,297.958893 454.207275,296.522552 466.349609,294.992157 
	C477.184265,293.626617 488.018524,292.256500 498.844788,290.826599 
	C510.648834,289.267548 522.441528,287.623016 534.242737,286.042145 
	C546.701355,284.373199 559.161011,282.710419 571.628723,281.111664 
	C573.435120,280.880035 575.289185,281.020752 577.638000,281.389771 
	C578.777771,285.898254 579.400757,290.006104 580.023743,294.113983 
z"/>
<path fill="#455058" opacity="1.000000" stroke="none" 
	d="
M356.002441,346.009277 
	C393.549652,345.661224 431.097198,345.345428 468.643951,344.954193 
	C495.217743,344.677277 521.791138,344.347046 548.363220,343.941193 
	C559.305359,343.774109 570.243408,343.346283 581.619873,343.529114 
	C582.054443,348.337128 582.052551,352.653015 582.050659,356.968933 
	C505.010468,356.976379 427.970306,356.983856 350.459290,356.598083 
	C349.524353,354.337769 349.060272,352.470673 348.596191,350.603607 
	C348.863403,350.181824 349.130585,349.760010 349.397797,349.338226 
	C351.133667,350.251282 352.869507,351.164337 355.377319,352.483429 
	C355.574188,350.444336 355.788300,348.226807 356.002441,346.009277 
z"/>
<path fill="#F3F5F7" opacity="1.000000" stroke="none" 
	d="
M381.603699,636.507446 
	C381.603699,618.720215 381.603699,600.932983 381.603699,582.486816 
	C385.657379,582.858337 389.215759,583.184448 392.961548,583.527771 
	C392.961548,587.199036 392.961548,590.392273 392.961548,594.557678 
	C394.550507,592.749207 395.476685,591.695129 396.506012,590.523621 
	C398.222717,592.425232 399.932556,594.319214 402.628265,597.305237 
	C402.628265,592.402100 402.628265,588.913330 402.628265,584.885376 
	C411.897858,586.008484 421.248138,594.142700 428.947815,582.431213 
	C432.317169,585.060852 435.387970,587.457458 437.591461,589.177185 
	C436.857758,593.011597 435.902252,595.751221 435.877625,598.499207 
	C435.716156,616.494080 435.454010,634.497681 435.859802,652.484009 
	C436.056793,661.215454 433.885223,665.468567 422.723083,666.483582 
	C421.112091,662.799500 419.494965,659.101379 417.770203,655.157104 
	C423.465820,655.547974 424.435303,652.207642 424.345245,646.879578 
	C424.030090,628.237610 424.223145,609.587036 424.223145,591.214844 
	C423.635895,590.729797 423.396790,590.358398 423.126862,590.334412 
	C413.306396,589.463013 413.308868,589.467468 413.305023,599.297424 
	C413.301605,607.961792 413.281891,616.626221 413.285278,625.290588 
	C413.290741,639.346619 407.674225,651.090149 398.308075,661.200989 
	C396.800598,662.828369 394.605591,663.818726 391.845703,664.485535 
	C392.564545,662.445496 393.283386,660.405457 394.024902,658.300903 
	C385.192688,657.637573 383.800476,655.926880 381.139801,642.488403 
	C389.734985,640.908508 391.742310,648.913574 397.158234,653.670837 
	C398.916656,648.619568 400.490326,644.099121 402.314453,638.859192 
	C395.202881,638.859192 389.096802,638.859192 382.466675,638.442871 
	C381.829651,637.520203 381.716675,637.013794 381.603699,636.507446 
M402.240417,608.526855 
	C402.240417,605.240723 402.240417,601.954590 402.240417,598.511292 
	C398.779755,598.511292 395.904694,598.511292 393.117615,598.511292 
	C393.117615,610.533020 393.117615,622.172241 393.117615,634.752869 
	C394.844940,632.835754 395.872955,631.694763 396.893005,630.562622 
	C398.587128,631.986633 399.981934,633.159119 402.238831,635.056152 
	C402.238831,625.760742 402.238831,617.640686 402.240417,608.526855 
z"/>
<path fill="#A85848" opacity="1.000000" stroke="none" 
	d="
M580.345581,294.118530 
	C579.400757,290.006104 578.777771,285.898254 578.087524,281.406494 
	C586.509155,279.695465 594.976868,278.210327 603.491089,277.072998 
	C623.042664,274.461212 642.616882,272.018463 662.182007,269.507965 
	C676.322388,267.693542 690.449158,265.761566 704.609924,264.123871 
	C710.467834,263.446411 712.565063,265.493347 712.980652,271.208466 
	C713.445007,277.594940 712.003174,279.305420 705.883667,280.029877 
	C681.368774,282.932281 656.866882,285.945557 632.345276,288.789795 
	C616.203003,290.662079 600.035400,292.315460 583.174561,294.067719 
	C582.297668,294.113708 582.125305,294.158844 581.952881,294.203979 
	C581.524353,294.177002 581.095886,294.150024 580.345581,294.118530 
z"/>
<path fill="#A95848" opacity="1.000000" stroke="none" 
	d="
M582.513794,356.999756 
	C582.052551,352.653015 582.054443,348.337128 582.095337,343.568939 
	C585.127991,343.075500 588.121521,343.027161 591.115173,342.994293 
	C625.702271,342.614502 660.289612,342.258728 694.876160,341.834717 
	C699.851624,341.773712 704.823364,341.197998 709.796448,341.202606 
	C714.972534,341.207367 716.889465,343.577637 716.878601,349.237091 
	C716.867615,354.953857 715.015625,357.104889 709.748596,357.104767 
	C667.491394,357.103760 625.234131,357.060730 582.513794,356.999756 
z"/>
<path fill="#E1DAB5" opacity="1.000000" stroke="none" 
	d="
M289.179474,358.284698 
	C290.967499,366.372040 292.687836,374.475189 294.570007,382.540558 
	C295.630707,387.085693 294.856384,388.574585 290.316589,388.604706 
	C274.701111,388.708282 259.084198,388.698212 243.468567,388.603912 
	C238.744492,388.575409 237.916687,387.066071 239.014023,382.213226 
	C240.840454,374.136047 242.527939,366.027405 244.785736,357.501953 
	C248.527451,357.006714 251.757385,356.941498 255.325378,356.930847 
	C256.117065,356.943726 256.570648,356.902008 257.487305,356.927185 
	C267.621613,356.946533 277.292877,356.899048 287.233521,356.945251 
	C288.061768,357.454224 288.620605,357.869446 289.179474,358.284698 
z"/>
<path fill="#E4DBB7" opacity="1.000000" stroke="none" 
	d="
M243.603394,320.516571 
	C242.111526,314.067810 240.686829,307.602570 239.107193,301.175385 
	C237.766037,295.718597 238.390106,294.671570 244.155838,294.629456 
	C259.249939,294.519196 274.345337,294.486298 289.439636,294.555695 
	C295.077698,294.581604 295.858246,295.844391 294.495270,301.182861 
	C293.226318,306.152893 292.100281,311.159393 290.497986,316.649719 
	C275.058594,319.199677 260.032501,321.249786 244.742065,323.112671 
	C244.186264,322.122528 243.894836,321.319550 243.603394,320.516571 
z"/>
<path fill="#F6F8FA" opacity="1.000000" stroke="none" 
	d="
M373.952606,638.879639 
	C371.655945,638.879639 369.359283,638.879639 367.062592,638.879639 
	C366.860931,639.433105 366.659271,639.986633 366.457611,640.540100 
	C370.194855,642.393921 373.932068,644.247681 378.387482,646.457703 
	C369.642334,652.198486 366.053375,663.470520 354.004150,666.533081 
	C357.687561,657.034180 365.398193,650.041992 364.113861,639.500793 
	C362.822906,639.194397 361.453674,638.869446 360.577881,638.661560 
	C360.577881,619.928040 360.577881,601.393066 360.577881,582.015930 
	C364.825439,582.497986 368.315765,582.894165 371.919037,583.303101 
	C371.919037,599.975769 371.886963,616.088196 371.967438,632.200073 
	C371.975708,633.854248 372.656952,635.505005 373.449280,637.512695 
	C373.899292,638.205200 373.925934,638.542419 373.952606,638.879639 
z"/>
<path fill="#F1F6F8" opacity="1.000000" stroke="none" 
	d="
M657.067200,597.115173 
	C656.383911,595.146057 655.848999,593.108765 654.982483,591.223877 
	C653.684326,588.400208 652.153198,585.683594 650.419067,582.338623 
	C656.369812,582.022766 661.835938,582.335449 664.803101,586.875488 
	C666.194397,589.004211 664.516602,593.138794 664.173462,596.997375 
	C667.690552,596.997375 672.433960,597.231201 677.123962,596.834045 
	C678.306030,596.733887 679.872803,594.785339 680.300842,593.390930 
	C681.504517,589.470215 682.207092,585.395569 683.276367,580.627319 
	C688.086548,582.091614 692.409058,583.407532 697.442688,584.939880 
	C691.651550,588.753784 686.569702,592.100647 681.487854,595.447449 
	C689.862183,597.721558 697.362488,598.444641 701.012695,588.176453 
	C704.831543,591.458496 707.997681,594.179504 711.163818,596.900574 
	C711.046204,597.273315 710.928650,597.646057 710.811035,598.018799 
	C700.177185,598.018799 689.543335,598.018799 678.568909,598.018799 
	C678.568909,606.895508 678.568909,615.105042 678.568909,623.841187 
	C682.203308,623.841187 685.640564,623.841187 689.503784,624.111633 
	C689.929810,624.382080 689.941467,624.830627 689.941467,624.830627 
	C671.663696,624.830627 653.385925,624.830627 635.108093,624.830627 
	C635.100281,624.580444 635.092468,624.330261 635.084595,624.080078 
	C644.981445,624.080078 654.878235,624.080078 665.071899,624.080078 
	C665.071899,615.382080 665.071899,607.312744 665.071899,598.535767 
	C662.657776,598.535767 660.395264,598.535767 657.693481,598.287476 
	C657.116760,597.746338 657.054443,597.438354 657.067200,597.115173 
z"/>
<path fill="#ECF2F5" opacity="1.000000" stroke="none" 
	d="
M320.136780,515.053467 
	C319.200378,515.202759 318.241272,515.269653 317.332886,515.520386 
	C315.922668,515.909668 313.787750,517.201172 313.307159,516.731628 
	C312.132111,515.583435 311.182343,513.638062 311.204834,512.028381 
	C311.220032,510.939240 312.868530,509.583069 314.091095,508.864838 
	C316.221863,507.613068 318.579346,506.742279 320.856720,505.745850 
	C326.342163,503.345703 327.706512,499.125916 326.234619,493.317810 
	C321.016785,493.306519 314.564087,495.494110 312.889160,487.005890 
	C317.574677,487.502350 322.842651,491.116211 326.038208,485.944794 
	C328.348145,482.206512 325.864685,477.170990 322.090912,474.972656 
	C330.697266,471.500519 333.915527,474.124664 332.586945,484.009613 
	C334.421234,483.697723 336.175293,483.036499 337.825165,483.236237 
	C339.095154,483.390015 340.234070,484.626434 341.431213,485.381409 
	C340.686432,486.511597 340.087921,487.789520 339.146851,488.721527 
	C338.488831,489.373199 337.392700,489.775238 336.440033,489.904755 
	C331.118103,490.628387 330.191681,493.912537 331.491119,499.237122 
	C334.543030,498.613953 337.688141,498.008636 340.816498,497.326233 
	C351.168427,495.068176 358.697449,500.272461 358.053375,509.267181 
	C357.663055,514.717773 352.424316,519.623230 346.662964,519.932861 
	C341.540588,520.208130 337.057465,517.127625 336.023438,512.621033 
	C338.536896,513.191956 341.028870,514.100891 343.568146,514.261353 
	C348.049347,514.544495 351.555634,510.992767 351.666534,506.542175 
	C351.770782,502.358063 348.602020,498.981964 344.054810,499.073639 
	C341.292969,499.129395 338.523071,499.944611 335.802521,500.606598 
	C331.950989,501.543732 330.398712,503.935974 331.113373,507.988495 
	C331.630890,510.923004 332.125885,514.014160 331.718750,516.907043 
	C331.433105,518.936646 329.611115,520.750000 328.475220,522.659912 
	C327.008270,521.623230 325.453644,520.688354 324.098816,519.521545 
	C322.718842,518.333008 321.535370,516.916382 320.560944,515.225342 
	C327.013824,515.088196 327.649597,514.184265 325.029877,506.425293 
	C323.398834,509.301361 321.767822,512.177429 320.136780,515.053467 
z"/>
<path fill="#EEF3F6" opacity="1.000000" stroke="none" 
	d="
M570.761536,521.797424 
	C581.227844,510.886871 583.572815,497.243134 584.412598,483.092834 
	C583.964905,482.789978 583.517151,482.487152 583.069458,482.184296 
	C582.048035,483.303894 580.741638,484.273102 580.057007,485.570465 
	C577.735352,489.969757 575.737366,494.540802 573.385803,498.922821 
	C572.660706,500.274048 571.200195,501.230713 569.695251,502.753967 
	C572.055603,491.591492 574.224731,481.333130 576.497559,470.584625 
	C579.035828,471.044922 581.750000,471.537109 584.679321,472.068329 
	C583.617798,475.146149 582.690369,477.835205 581.762878,480.524261 
	C582.082642,480.786865 582.402344,481.049438 582.722046,481.312012 
	C584.338440,480.201355 585.954834,479.090698 587.912048,477.745850 
	C589.578247,479.157410 591.322754,480.635284 593.331665,482.337189 
	C590.833313,490.353271 587.993408,498.230713 586.009766,506.318146 
	C584.913452,510.787384 589.105347,512.763062 592.434021,513.743469 
	C596.347229,514.896118 600.598877,515.097656 604.723206,515.285889 
	C610.012146,515.527283 615.320557,515.344604 621.002625,515.344604 
	C619.751160,520.593811 617.896240,524.092834 611.761841,523.108154 
	C608.179749,522.533081 604.435425,523.049316 600.806152,522.670837 
	C593.487305,521.907471 586.721680,519.887695 583.163574,512.353210 
	C578.789001,515.979248 575.052856,519.076172 571.020752,521.962524 
	C570.724731,521.751953 570.761536,521.797424 570.761536,521.797424 
z"/>
<path fill="#E2DAB6" opacity="1.000000" stroke="none" 
	d="
M245.754196,346.989319 
	C245.780350,345.928772 245.806488,344.868256 245.903503,342.990234 
	C245.875763,340.453278 245.777161,338.733795 245.678543,337.014313 
	C245.600647,335.945038 245.522766,334.875732 245.820801,333.381653 
	C246.467300,332.899017 246.737869,332.841156 247.430099,332.856232 
	C255.246994,332.035065 262.629395,331.008820 270.041412,330.287262 
	C276.344543,329.673645 282.681915,329.411133 289.004120,328.993286 
	C288.625671,334.661041 288.247192,340.328827 287.405884,346.409973 
	C285.628204,346.886230 284.313385,346.949127 282.567505,346.925293 
	C280.091492,346.910126 278.046509,346.981659 275.605682,346.991638 
	C274.146912,346.983521 273.083954,347.036926 271.683777,347.035461 
	C270.894318,347.019501 270.442139,347.058411 269.526917,347.023315 
	C261.293945,346.962616 253.524078,346.975952 245.754196,346.989319 
z"/>
<path fill="#5C504F" opacity="1.000000" stroke="none" 
	d="
M245.304108,346.973938 
	C253.524078,346.975952 261.293945,346.962616 269.528137,347.413361 
	C269.995361,348.918457 269.998291,349.959503 269.792175,351.116943 
	C269.599335,351.585327 269.615509,351.937256 269.631653,352.289215 
	C269.754028,351.859070 269.876404,351.428925 270.375000,351.007446 
	C272.493286,352.066925 274.235352,353.117737 275.977417,354.168518 
	C276.303894,353.756317 276.630371,353.344086 276.956848,352.931885 
	C275.311584,350.984711 273.666290,349.037537 272.021027,347.090363 
	C273.083954,347.036926 274.146912,346.983521 275.663025,347.330688 
	C278.073364,349.816376 280.030487,351.901459 281.993835,353.993225 
	C282.000000,353.999969 282.013092,354.012329 282.046387,354.311096 
	C282.487061,354.928925 282.894379,355.247986 283.301697,355.567078 
	C283.530670,355.048370 283.759613,354.529694 284.003906,353.996185 
	C284.019257,353.981384 284.050720,353.951538 284.411560,353.965942 
	C285.502960,354.937408 286.233551,355.894501 286.964142,356.851562 
	C277.292877,356.899048 267.621613,356.946533 257.435242,356.643524 
	C256.596466,355.994263 256.272797,355.695526 255.949127,355.396790 
	C255.628525,355.889984 255.307922,356.383148 254.987305,356.876282 
	C251.757385,356.941498 248.527451,357.006714 244.872879,357.084656 
	C237.310547,357.074036 230.172333,356.989136 223.035431,357.053162 
	C219.450516,357.085297 216.349838,355.899933 216.238541,352.147675 
	C216.120575,348.169342 219.627884,347.177887 222.945206,347.102448 
	C230.245453,346.936493 237.550766,346.992920 245.304108,346.973938 
M256.046082,353.142029 
	C256.923157,353.125427 257.800262,353.108856 258.677338,353.092255 
	C257.968292,351.806885 257.259247,350.521484 256.451477,349.057190 
	C254.729630,350.280945 253.520340,351.140411 251.636505,352.479309 
	C253.468140,352.752441 254.394669,352.890594 256.046082,353.142029 
M261.975739,351.860779 
	C261.818634,351.598114 261.711945,351.197571 261.488647,351.115845 
	C261.306213,351.049103 260.984558,351.363037 260.724609,351.508209 
	C260.984802,351.654022 261.245026,351.799835 261.975739,351.860779 
z"/>
<path fill="#EEF3F6" opacity="1.000000" stroke="none" 
	d="
M595.801147,507.751404 
	C594.231323,508.930420 592.897644,509.846100 591.563904,510.761749 
	C596.478638,499.089111 595.887390,486.948120 595.765991,474.580261 
	C600.467224,475.119659 605.368469,479.627136 608.716431,472.896301 
	C612.094543,475.038147 614.102783,476.549957 613.468079,481.140259 
	C612.509521,488.072540 613.218018,495.235291 613.218018,502.300110 
	C613.979065,502.526947 614.740112,502.753784 615.501099,502.980621 
	C616.959717,500.970734 618.418335,498.960846 619.642212,497.274445 
	C620.250366,499.157349 621.125244,501.650879 621.832947,504.190979 
	C622.039001,504.930664 622.064026,506.006927 621.668335,506.582733 
	C618.514587,511.172241 613.736145,508.729828 609.706909,508.822784 
	C608.584290,508.848694 606.475464,505.752594 606.385620,504.008057 
	C606.009399,496.701904 606.306519,489.363495 606.158997,482.040894 
	C606.131653,480.682373 605.190857,479.342224 604.671692,477.993591 
	C603.965149,479.348541 602.734680,480.667511 602.638794,482.064392 
	C602.093872,490.002655 602.494751,498.097656 597.982666,505.220612 
	C597.455322,506.053162 596.691467,506.735901 595.801147,507.751404 
z"/>
<path fill="#5E5351" opacity="1.000000" stroke="none" 
	d="
M289.345764,328.825439 
	C282.681915,329.411133 276.344543,329.673645 270.041412,330.287262 
	C262.629395,331.008820 255.246994,332.035065 247.427338,332.474640 
	C246.337433,329.113373 245.671936,326.206635 245.006439,323.299866 
	C260.032501,321.249786 275.058594,319.199677 290.474060,317.056396 
	C291.333679,316.985931 291.803833,317.008575 292.639557,317.407135 
	C294.521210,319.621277 297.097961,319.019440 300.035492,316.140991 
	C300.769012,316.104553 301.502563,316.068115 302.602661,316.040100 
	C302.132477,317.971954 301.246613,319.875916 300.475311,321.825195 
	C299.909088,323.256165 299.492981,324.746460 299.008026,326.619354 
	C295.899872,327.571442 292.793610,328.114502 289.345764,328.825439 
z"/>
<path fill="#F6F8FA" opacity="1.000000" stroke="none" 
	d="
M644.205078,660.274841 
	C648.119568,657.432129 651.887878,654.978699 655.299316,652.102051 
	C660.288513,647.895020 663.753662,642.863770 663.208923,635.787598 
	C663.023071,633.373535 663.801453,630.885193 664.242249,627.682434 
	C669.303345,628.024719 674.189880,628.355286 679.245483,628.697205 
	C675.057129,638.709106 675.898804,650.416687 665.356995,656.987976 
	C656.142578,662.731873 646.448242,665.884644 635.430115,665.237183 
	C638.253235,663.649780 641.076294,662.062378 644.205078,660.274841 
z"/>
<path fill="#515055" opacity="1.000000" stroke="none" 
	d="
M355.533936,345.984558 
	C355.788300,348.226807 355.574188,350.444336 355.377319,352.483429 
	C352.869507,351.164337 351.133667,350.251282 349.397797,349.338226 
	C349.130585,349.760010 348.863403,350.181824 348.596191,350.603607 
	C349.060272,352.470673 349.524353,354.337769 349.990601,356.576569 
	C334.616364,356.949036 319.239929,356.949768 303.470154,356.575867 
	C305.420959,352.570740 302.463043,349.537323 301.953583,346.228180 
	C319.657532,346.138733 337.361511,346.049286 355.533936,345.984558 
z"/>
<path fill="#ECF2F5" opacity="1.000000" stroke="none" 
	d="
M423.919434,513.987610 
	C417.285461,517.279968 410.651489,520.572327 403.598999,524.072388 
	C402.067017,521.228455 400.769043,518.818848 399.129761,515.775696 
	C401.895325,515.509460 404.098267,515.297424 406.829285,515.034546 
	C406.829285,506.226044 406.829285,497.362549 406.829285,488.230682 
	C404.865509,488.897278 402.799255,489.598694 401.053833,490.191162 
	C406.135742,484.177582 411.158997,478.051941 416.448822,472.165863 
	C417.259491,471.263763 419.353760,471.065063 420.758972,471.253296 
	C422.847565,471.533081 424.851044,472.447998 427.352112,473.238403 
	C421.419495,478.009521 415.839569,482.497009 409.931152,487.248688 
	C411.481567,487.943878 412.924042,488.590668 414.538025,489.314362 
	C414.538025,497.353424 414.538025,505.534943 414.538025,514.129761 
	C417.524597,514.129761 420.285431,514.129761 423.506653,514.065491 
	C423.967072,514.001221 423.919434,513.987610 423.919434,513.987610 
z"/>
<path fill="#F1F4F6" opacity="1.000000" stroke="none" 
	d="
M512.760437,476.164124 
	C512.741638,488.948120 512.869629,501.254028 512.589050,513.550659 
	C512.525940,516.319336 511.813934,519.792542 510.045746,521.655396 
	C506.203369,525.703430 503.757202,524.571716 498.536835,517.076843 
	C505.025208,518.161621 505.118011,514.301331 505.048370,509.684662 
	C504.853149,496.741425 504.980316,483.793335 504.980316,470.128113 
	C507.855835,470.409454 510.356079,470.654083 513.046021,470.917267 
	C512.934631,472.769684 512.847046,474.226166 512.760437,476.164124 
z"/>
<path fill="#EFF4F7" opacity="1.000000" stroke="none" 
	d="
M431.914337,510.785187 
	C432.670197,509.530365 433.426086,508.275543 434.300262,506.824341 
	C432.487122,505.703003 430.814636,504.668671 430.106750,504.230865 
	C430.106750,499.115295 430.106750,494.897522 430.106750,490.249847 
	C426.428772,490.249847 422.501404,490.249847 418.549835,490.249847 
	C418.776062,487.629852 418.966797,485.421173 419.172028,483.044739 
	C421.716156,483.044739 424.133240,483.044739 426.843567,483.044739 
	C426.843567,485.103088 426.843567,486.848297 426.843567,489.923157 
	C429.289642,488.544769 431.360107,487.912537 432.432709,486.514648 
	C432.871033,485.943359 431.307251,483.604401 430.372314,482.266724 
	C429.065948,480.397705 427.495544,478.713226 425.615479,476.438324 
	C433.605286,478.519196 440.797821,480.392456 448.155792,482.308777 
	C446.495636,484.782135 444.863007,487.214508 443.126984,489.800934 
	C441.663727,489.510315 440.117004,489.203094 438.079681,488.798401 
	C440.620148,495.585999 433.769562,503.990479 444.301697,509.503693 
	C439.618347,510.544525 436.228363,511.297913 432.404724,511.731201 
	C431.952148,511.202454 431.933258,510.993835 431.914337,510.785187 
z"/>
<path fill="#F1F6F8" opacity="1.000000" stroke="none" 
	d="
M679.835815,645.907837 
	C680.120911,645.218506 680.711792,644.464111 680.792908,644.515503 
	C690.592407,650.716125 701.905579,651.999512 712.852905,654.466064 
	C713.141357,654.531006 713.372314,654.851013 713.868225,655.237854 
	C711.975952,658.555664 710.296631,662.090210 708.002625,665.166382 
	C707.305115,666.101746 704.634705,666.447021 703.339172,665.915039 
	C693.470154,661.861938 685.041504,655.961182 679.835815,645.907837 
z"/>
<path fill="#9A5B52" opacity="1.000000" stroke="none" 
	d="
M460.300049,687.132080 
	C460.552673,697.699707 460.552673,707.937561 460.552673,718.519165 
	C458.559662,718.519165 456.670685,718.519165 454.194580,718.519165 
	C454.194580,708.142151 454.194580,697.957581 454.194580,687.085144 
	C455.669159,687.013855 457.858276,686.908020 460.300049,687.132080 
z"/>
<path fill="#9A5B52" opacity="1.000000" stroke="none" 
	d="
M543.045288,719.005188 
	C541.330872,718.979187 539.616455,718.953247 537.637817,718.539551 
	C537.373535,707.921448 537.373535,697.690918 537.373535,686.997009 
	C540.413757,686.997009 542.208557,686.997009 544.003296,686.997009 
	C544.003296,686.997009 544.000000,687.000000 543.969727,687.466797 
	C543.969849,691.899353 544.133667,695.869690 544.000244,699.829895 
	C543.784790,706.225159 543.373718,712.613770 543.045288,719.005188 
z"/>
<path fill="#ECF2F5" opacity="1.000000" stroke="none" 
	d="
M523.811096,492.953674 
	C525.311401,494.758179 526.811768,496.562653 528.522095,498.619720 
	C528.378235,499.506775 528.152222,500.900146 527.761658,503.308350 
	C529.446472,501.730743 530.415833,500.823120 531.955566,499.381348 
	C533.226624,500.991028 534.493835,502.595947 536.134094,504.673279 
	C533.333069,504.673279 530.952759,504.673279 528.455383,504.673279 
	C526.716858,508.633148 530.559509,516.322693 521.439514,514.702393 
	C518.985718,509.353088 522.959045,502.750488 519.258728,497.201202 
	C519.826904,496.526917 521.012268,495.120117 522.456726,493.341370 
	C523.080872,492.964172 523.445984,492.958923 523.811096,492.953674 
z"/>
<path fill="#F1F6F8" opacity="1.000000" stroke="none" 
	d="
M555.036194,621.147644 
	C557.940002,617.419373 560.843750,613.691040 564.152039,609.443542 
	C568.077209,613.108765 571.925598,616.702148 575.890137,620.893127 
	C575.980591,621.892334 575.954895,622.294006 575.929199,622.695679 
	C569.284363,622.730896 562.639526,622.766174 555.552063,622.478760 
	C555.085022,621.819885 555.060608,621.483765 555.036194,621.147644 
z"/>
<path fill="#F6F8FA" opacity="1.000000" stroke="none" 
	d="
M279.013672,621.079895 
	C281.665375,617.345520 284.317108,613.611084 287.387177,609.287598 
	C291.910980,613.512939 296.181488,617.501709 300.452026,621.490540 
	C300.319336,621.925720 300.186615,622.360840 300.053894,622.796021 
	C293.366425,622.796021 286.678986,622.796021 279.542542,622.462952 
	C279.066925,621.779907 279.040314,621.429871 279.013672,621.079895 
z"/>
<path fill="#8F564E" opacity="1.000000" stroke="none" 
	d="
M474.932709,708.094238 
	C474.931305,711.843445 474.931305,715.127014 474.931305,718.628906 
	C472.876434,718.628906 470.802246,718.628906 468.091736,718.628906 
	C468.091736,713.938354 467.993622,709.504639 468.122284,705.077637 
	C468.228058,701.437073 467.257629,699.063293 462.547577,700.073669 
	C462.616699,699.490479 462.685822,698.907288 462.754974,698.324097 
	C465.508820,697.943481 468.524414,696.719055 470.928925,697.464783 
	C472.670349,698.004944 473.859344,701.045166 474.795776,703.188538 
	C475.346161,704.448242 474.920685,706.134338 474.932709,708.094238 
z"/>
<path fill="#ECF2F5" opacity="1.000000" stroke="none" 
	d="
M431.522278,510.938171 
	C431.933258,510.993835 431.952148,511.202454 431.992004,511.724670 
	C432.729645,512.744080 433.354279,513.914001 434.178467,514.077454 
	C438.317688,514.898132 442.509094,515.455627 447.099670,516.170593 
	C445.334015,518.957275 443.862946,521.278992 442.201416,523.901306 
	C435.260223,522.143555 429.758789,517.875916 424.176788,513.643921 
	C423.919434,513.987610 423.967072,514.001221 423.974457,514.023682 
	C423.560181,511.765747 423.138550,509.485382 422.815216,507.736816 
	C425.565460,508.846283 428.347839,509.968719 431.522278,510.938171 
z"/>
<path fill="#9A5B52" opacity="1.000000" stroke="none" 
	d="
M413.745026,717.186707 
	C408.062347,713.888000 406.542938,707.711975 410.013641,702.019653 
	C412.960052,697.187134 420.853516,695.090820 425.267700,698.270752 
	C426.510681,699.166077 427.014679,701.146484 427.671722,702.707458 
	C427.739838,702.869202 426.121857,704.052551 425.987701,703.938232 
	C424.885162,702.999268 423.966248,701.848511 422.956818,700.795410 
	C422.043793,699.842896 420.944977,698.066406 420.180511,698.191895 
	C418.785706,698.420654 416.959229,699.505249 416.400879,700.729187 
	C414.237366,705.471802 414.107025,710.302856 417.081421,715.521912 
	C415.866302,716.536072 414.805664,716.861389 413.745026,717.186707 
z"/>
<path fill="#675252" opacity="1.000000" stroke="none" 
	d="
M244.742065,323.112701 
	C245.671936,326.206635 246.337433,329.113373 247.005707,332.401703 
	C246.737869,332.841156 246.467300,332.899017 245.781570,332.980835 
	C243.867310,333.036194 242.368179,333.067566 240.576569,332.773407 
	C240.309952,328.508148 237.592773,325.783508 234.479660,327.213104 
	C229.998428,329.270996 225.782715,330.147461 221.414383,327.074524 
	C218.721970,330.806427 219.893082,333.289276 223.101105,335.315186 
	C219.642075,336.861664 217.169891,335.580322 216.131897,332.239746 
	C215.171829,329.149933 218.225296,326.336914 222.122803,325.948151 
	C227.865875,325.375244 233.611664,324.745667 239.306046,323.828369 
	C240.709015,323.602356 241.917877,322.171448 243.409698,320.905518 
	C243.894836,321.319550 244.186264,322.122528 244.742065,323.112701 
z"/>
<path fill="#9A5B52" opacity="1.000000" stroke="none" 
	d="
M382.704102,716.839844 
	C380.716003,717.890808 378.776489,718.546448 375.731171,719.575928 
	C375.731171,711.742615 375.731171,705.279480 375.731171,698.548889 
	C382.087921,695.925659 382.324493,696.129089 382.279633,703.143433 
	C382.251251,707.575989 382.582672,712.010803 382.704102,716.839844 
z"/>
<path fill="#9A5B52" opacity="1.000000" stroke="none" 
	d="
M548.183105,697.138916 
	C555.929077,696.700806 558.992920,699.469788 559.129456,707.031738 
	C559.286560,715.734558 556.482056,719.015625 548.357605,718.725342 
	C548.217285,717.684570 548.653198,716.878357 549.048584,716.034241 
	C549.008179,715.996338 549.068176,716.086853 549.435669,716.039062 
	C554.905579,711.113708 554.200806,702.793335 548.426819,698.931702 
	C548.094604,698.709473 548.253052,697.753418 548.183105,697.138916 
z"/>
<path fill="#9A5B52" opacity="1.000000" stroke="none" 
	d="
M509.103210,701.291748 
	C509.096832,705.898499 508.881500,710.056519 509.139648,714.184937 
	C509.427704,718.791809 507.465790,719.718933 502.710205,718.058472 
	C502.710205,711.806763 502.710205,705.345093 502.710205,698.609497 
	C504.527283,698.874817 508.554474,693.477173 509.103210,701.291748 
z"/>
<path fill="#9A5B52" opacity="1.000000" stroke="none" 
	d="
M592.040894,716.592407 
	C590.354309,717.790466 588.681824,718.536926 585.718323,719.859558 
	C585.718323,711.906616 585.718323,705.452942 585.718323,698.293640 
	C586.921021,697.991516 589.058716,697.454529 592.055054,696.701843 
	C592.055054,703.645325 592.055054,709.893005 592.040894,716.592407 
z"/>
<path fill="#C3D0DE" opacity="1.000000" stroke="none" 
	d="
M278.546570,621.031860 
	C279.040314,621.429871 279.066925,621.779907 279.083557,622.393433 
	C258.957703,622.745544 238.841873,622.838684 218.725937,622.898926 
	C218.155167,622.900635 217.583328,622.552368 217.011993,622.367310 
	C217.031769,621.906128 217.051559,621.444946 217.071350,620.983765 
	C237.407379,620.983765 257.743439,620.983765 278.546570,621.031860 
z"/>
<path fill="#C3D0DE" opacity="1.000000" stroke="none" 
	d="
M554.572144,621.061035 
	C555.060608,621.483765 555.085022,621.819885 555.093567,622.408569 
	C535.087524,622.746033 515.097351,622.836121 495.107147,622.889587 
	C494.532806,622.891113 493.957428,622.503967 493.382538,622.298096 
	C493.403839,621.856873 493.425171,621.415649 493.446472,620.974426 
	C513.667053,620.974426 533.887573,620.974426 554.572144,621.061035 
z"/>
<path fill="#EEF3F6" opacity="1.000000" stroke="none" 
	d="
M491.129639,494.614990 
	C490.091949,489.955017 489.434418,485.346954 488.618835,479.631348 
	C492.642456,481.017517 495.591797,482.033630 498.019562,482.870026 
	C497.612152,484.771729 496.840393,486.245270 497.109711,487.494324 
	C498.146179,492.301483 495.798523,494.171082 491.129639,494.614990 
z"/>
<path fill="#F1F6F8" opacity="1.000000" stroke="none" 
	d="
M354.751709,481.040466 
	C357.462097,483.446289 360.726562,485.393738 361.882233,488.207397 
	C363.316620,491.699524 361.043640,493.260742 357.255737,492.108063 
	C356.307953,491.819702 355.385773,491.411194 354.419525,491.230743 
	C353.641998,491.085602 352.815735,491.201385 351.929626,491.201385 
	C354.959930,485.660980 354.486908,484.852570 346.472931,480.966431 
	C349.105316,480.966431 351.737732,480.966431 354.751709,481.040466 
z"/>
<path fill="#EFF4F7" opacity="1.000000" stroke="none" 
	d="
M696.053162,623.125549 
	C698.097351,620.606018 700.141602,618.086548 702.482727,615.201050 
	C706.056213,618.062683 709.457947,620.786743 712.859680,623.510803 
	C712.747131,623.949951 712.634583,624.389099 712.522095,624.828247 
	C707.669006,624.828247 702.815979,624.828247 697.392822,624.574829 
	C696.566223,623.922791 696.309692,623.524170 696.053162,623.125549 
z"/>
<path fill="#EFF4F7" opacity="1.000000" stroke="none" 
	d="
M524.182617,492.844910 
	C523.445984,492.958923 523.080872,492.964172 522.441895,492.964478 
	C521.666870,491.913422 520.851562,490.901917 520.731628,489.813721 
	C520.501099,487.721893 520.664490,485.586609 520.664490,483.469360 
	C520.255005,483.467194 519.845581,483.465057 519.436096,483.462891 
	C520.753845,482.285339 522.071533,481.107758 523.832153,479.534424 
	C525.704529,480.917542 527.627869,482.338318 529.896362,484.014069 
	C527.581116,486.712341 531.064148,492.495239 524.182617,492.844910 
z"/>
<path fill="#F1F6F8" opacity="1.000000" stroke="none" 
	d="
M697.150330,639.169983 
	C699.246887,636.519470 701.343445,633.869019 703.951111,630.572449 
	C707.439453,633.426208 710.863037,636.227051 714.286621,639.027893 
	C714.155212,639.442322 714.023743,639.856689 713.892273,640.271118 
	C708.562439,640.271118 703.232544,640.271118 697.527527,639.980225 
	C697.151733,639.516174 697.151001,639.343079 697.150330,639.169983 
z"/>
<path fill="#362D37" opacity="1.000000" stroke="none" 
	d="
M547.806946,697.087708 
	C548.253052,697.753418 548.094604,698.709473 548.426819,698.931702 
	C554.200806,702.793335 554.905579,711.113708 549.444702,715.666138 
	C553.461365,707.531494 552.701050,703.106689 545.955566,700.325806 
	C545.658752,704.177917 544.935059,707.886292 545.292664,711.487366 
	C545.455322,713.125122 547.757385,714.550476 549.089050,716.072144 
	C548.653198,716.878357 548.217285,717.684570 547.945801,718.708862 
	C546.701477,718.955078 545.292847,718.983215 543.464722,719.008240 
	C543.373718,712.613770 543.784790,706.225159 544.000244,699.829895 
	C544.133667,695.869690 543.969849,691.899353 543.971252,687.465454 
	C544.548340,689.556274 544.990173,692.144287 545.694519,694.658630 
	C545.942505,695.543884 546.833435,696.249084 547.806946,697.087708 
z"/>
<path fill="#8F564E" opacity="1.000000" stroke="none" 
	d="
M223.462296,335.289490 
	C219.893082,333.289276 218.721970,330.806427 221.414383,327.074524 
	C225.782715,330.147461 229.998428,329.270996 234.479660,327.213104 
	C237.592773,325.783508 240.309952,328.508148 240.194580,332.789124 
	C240.105087,333.130341 240.073715,333.125702 239.739578,332.929779 
	C237.657104,329.595184 234.593399,329.459198 231.863892,330.289185 
	C230.853180,330.596527 230.576813,333.318848 229.965546,334.939789 
	C229.527344,334.972046 229.089157,335.004333 228.160828,334.767883 
	C227.112656,334.333984 226.554611,334.168823 225.987595,333.763916 
	C225.860962,333.249756 225.743317,332.975342 225.625671,332.700928 
	C225.502579,332.787964 225.379486,332.875000 225.256378,332.962036 
	C225.505356,333.307281 225.754318,333.652496 225.999451,334.274475 
	C225.995804,334.735748 225.995987,334.920258 225.996170,335.104767 
	C225.271942,335.157806 224.547714,335.210815 223.462296,335.289490 
z"/>
<path fill="#362D37" opacity="1.000000" stroke="none" 
	d="
M543.928955,686.617554 
	C542.208557,686.997009 540.413757,686.997009 537.373535,686.997009 
	C537.373535,697.690918 537.373535,707.921448 537.209412,718.524536 
	C535.666199,718.646179 534.287109,718.395264 533.412170,718.236023 
	C534.415649,716.438965 535.852783,715.035583 535.897095,713.589661 
	C536.125916,706.115173 535.927368,698.628723 536.047485,691.149170 
	C536.075684,689.397095 536.352661,686.451172 537.228088,686.153870 
	C539.200012,685.484253 541.618103,686.128540 543.928955,686.617554 
z"/>
<path fill="#EEF3F6" opacity="1.000000" stroke="none" 
	d="
M699.689209,611.048340 
	C693.099976,611.049805 686.974182,611.049805 680.848389,611.049805 
	C687.206421,611.021606 692.651123,609.692261 695.176697,602.282043 
	C698.833191,605.135498 701.905273,607.532837 706.017212,610.741699 
	C703.216125,610.887451 701.684387,610.967163 699.689209,611.048340 
z"/>
<path fill="#515055" opacity="1.000000" stroke="none" 
	d="
M301.104004,356.802216 
	C300.008972,356.856873 298.913910,356.911530 297.404480,356.587036 
	C295.332520,354.470459 293.674896,352.733002 292.009583,350.997986 
	C292.001892,351.000397 292.000305,350.985016 291.888916,350.766602 
	C291.571625,350.275940 291.303314,350.097534 290.758148,349.901428 
	C290.279449,349.586151 290.096954,349.325287 289.990173,348.710815 
	C289.972382,348.217133 289.960693,348.019867 289.949036,347.822571 
	C293.063568,347.272797 296.178131,346.723053 299.663818,346.538300 
	C300.391327,350.202942 300.747681,353.502594 301.104004,356.802216 
z"/>
<path fill="#597084" opacity="1.000000" stroke="none" 
	d="
M656.629761,639.062561 
	C658.232971,639.250854 659.386108,639.437012 660.539246,639.623230 
	C660.489746,639.958008 660.440308,640.292786 660.390869,640.627563 
	C651.118530,640.627563 641.846191,640.627563 632.573792,640.627563 
	C632.549194,640.105164 632.524597,639.582825 632.500000,639.060425 
	C640.393250,639.060425 648.286499,639.060425 656.629761,639.062561 
z"/>
<path fill="#ECF2F5" opacity="1.000000" stroke="none" 
	d="
M517.888428,477.879456 
	C517.323669,477.833740 517.160583,477.803619 516.997559,477.773499 
	C517.062988,477.576599 517.137695,477.204803 517.192505,477.207703 
	C521.524109,477.437225 525.499573,476.926941 527.450500,471.493225 
	C530.019043,473.311066 532.061829,474.756836 534.104614,476.202606 
	C534.004639,476.766754 533.904602,477.330872 533.804565,477.895020 
	C528.633118,477.895020 523.461609,477.895020 517.888428,477.879456 
z"/>
<path fill="#95A7BB" opacity="1.000000" stroke="none" 
	d="
M656.598877,597.044922 
	C657.054443,597.438354 657.116760,597.746338 657.243042,598.276917 
	C650.615112,598.514648 643.998291,598.514648 637.381531,598.514648 
	C637.375061,598.001343 637.368652,597.488037 637.362183,596.974731 
	C643.618347,596.974731 649.874451,596.974731 656.598877,597.044922 
z"/>
<path fill="#675252" opacity="1.000000" stroke="none" 
	d="
M230.335663,334.937134 
	C230.576813,333.318848 230.853180,330.596527 231.863892,330.289185 
	C234.593399,329.459198 237.657104,329.595184 239.728729,332.938599 
	C236.936600,333.740387 233.821198,334.337463 230.335663,334.937134 
z"/>
<path fill="#7B5A56" opacity="1.000000" stroke="none" 
	d="
M289.996216,349.007202 
	C290.096954,349.325287 290.279449,349.586151 290.869568,350.120148 
	C291.401398,350.722565 291.669678,350.900726 292.000305,350.985016 
	C292.000305,350.985016 292.001892,351.000397 291.962830,351.375366 
	C291.605927,353.479645 291.288086,355.209015 290.970245,356.938354 
	C290.558319,357.218384 290.146423,357.498413 289.456970,358.031555 
	C288.620605,357.869446 288.061768,357.454224 287.233521,356.945251 
	C286.233551,355.894501 285.502960,354.937408 284.409454,353.634583 
	C286.029755,351.861633 288.013000,350.434418 289.996216,349.007202 
z"/>
<path fill="#7B5A56" opacity="1.000000" stroke="none" 
	d="
M301.406433,356.842712 
	C300.747681,353.502594 300.391327,350.202942 300.067871,346.550079 
	C300.514160,346.165985 300.927551,346.135132 301.647278,346.166229 
	C302.463043,349.537323 305.420959,352.570740 303.001343,356.505920 
	C302.520264,356.834808 302.114532,356.859039 301.406433,356.842712 
z"/>
<path fill="#788A98" opacity="1.000000" stroke="none" 
	d="
M696.680420,639.079224 
	C697.151001,639.343079 697.151733,639.516174 697.059387,639.931763 
	C691.480835,641.505859 686.055237,641.304138 680.659668,640.332947 
	C680.663940,639.884766 680.668213,639.436584 680.672546,638.988403 
	C685.851868,638.988403 691.031128,638.988403 696.680420,639.079224 
z"/>
<path fill="#7B5A56" opacity="1.000000" stroke="none" 
	d="
M586.837402,691.138184 
	C585.432129,688.481384 585.852783,686.414551 588.637756,686.255188 
	C589.673584,686.195862 591.803345,688.307617 591.745605,689.334351 
	C591.587219,692.148193 589.489563,692.488892 586.837402,691.138184 
z"/>
<path fill="#7B5A56" opacity="1.000000" stroke="none" 
	d="
M503.400299,687.505371 
	C505.343506,687.422974 507.086395,687.671631 508.829285,687.920288 
	C508.042572,689.252991 507.447968,691.528809 506.431976,691.735718 
	C503.741547,692.283752 502.692780,690.476074 503.400299,687.505371 
z"/>
<path fill="#7B5A56" opacity="1.000000" stroke="none" 
	d="
M379.037109,691.962585 
	C377.851562,690.626099 376.875183,689.354736 376.416962,687.918152 
	C376.330750,687.648010 378.285492,686.296448 379.347168,686.230713 
	C380.152863,686.180725 381.853180,687.670288 381.745239,687.974792 
	C381.239349,689.401428 380.245300,690.655029 379.037109,691.962585 
z"/>
<path fill="#7B5A56" opacity="1.000000" stroke="none" 
	d="
M413.996216,717.489990 
	C414.805664,716.861389 415.866302,716.536072 417.202820,715.874023 
	C420.409058,715.900208 423.339478,716.263123 425.886719,716.578613 
	C423.859863,719.558655 419.803986,720.218994 413.996216,717.489990 
z"/>
<path fill="#5C504F" opacity="1.000000" stroke="none" 
	d="
M289.990173,348.710815 
	C288.013000,350.434418 286.029755,351.861633 284.048645,353.620178 
	C284.050720,353.951538 284.019257,353.981384 283.674744,353.993896 
	C282.891174,354.008362 282.452148,354.010345 282.013092,354.012329 
	C282.013092,354.012329 282.000000,353.999969 282.033081,353.648041 
	C282.376984,351.201416 282.687775,349.106689 282.998535,347.011993 
	C284.313385,346.949127 285.628204,346.886230 287.336670,346.864136 
	C288.279633,347.150543 288.829041,347.396179 289.663727,347.732178 
	C289.960693,348.019867 289.972382,348.217133 289.990173,348.710815 
z"/>
<path fill="#5C504F" opacity="1.000000" stroke="none" 
	d="
M291.401031,356.960938 
	C291.288086,355.209015 291.605927,353.479645 291.970520,351.372925 
	C293.674896,352.733002 295.332520,354.470459 296.993103,356.565613 
	C295.274658,356.943390 293.553223,356.963470 291.401031,356.960938 
z"/>
<path fill="#B8C6D1" opacity="1.000000" stroke="none" 
	d="
M374.396759,638.968384 
	C373.925934,638.542419 373.899292,638.205200 373.881500,637.612915 
	C376.195801,637.179199 378.501221,637.000610 381.205170,636.664734 
	C381.716675,637.013794 381.829651,637.520203 382.003174,638.411316 
	C379.656128,638.883118 377.248535,638.970154 374.396759,638.968384 
z"/>
<path fill="#454F58" opacity="1.000000" stroke="none" 
	d="
M299.638855,316.108643 
	C297.097961,319.019440 294.521210,319.621277 292.991455,317.438416 
	C295.065948,316.754578 297.154114,316.415405 299.638855,316.108643 
z"/>
<path fill="#B8C6D1" opacity="1.000000" stroke="none" 
	d="
M695.657104,623.079102 
	C696.309692,623.524170 696.566223,623.922791 696.930725,624.535095 
	C694.964478,624.837830 692.890320,624.926758 690.378784,624.923218 
	C689.941467,624.830627 689.929810,624.382080 689.961182,624.159912 
	C691.748718,623.636108 693.504883,623.334351 695.657104,623.079102 
z"/>
<path fill="#5C504F" opacity="1.000000" stroke="none" 
	d="
M245.466217,337.294800 
	C245.777161,338.733795 245.875763,340.453278 245.870056,342.593842 
	C245.595108,341.201691 245.424500,339.388489 245.466217,337.294800 
z"/>
<path fill="#675252" opacity="1.000000" stroke="none" 
	d="
M225.996567,334.003662 
	C226.554611,334.168823 227.112656,334.333984 227.831726,334.749390 
	C227.434784,335.164917 226.876831,335.330139 226.157532,335.300079 
	C225.995987,334.920258 225.995804,334.735748 225.997803,334.275635 
	C226.000000,334.000000 225.996567,334.003662 225.996567,334.003662 
z"/>
<path fill="#C3D0DE" opacity="1.000000" stroke="none" 
	d="
M576.236450,622.756104 
	C575.954895,622.294006 575.980591,621.892334 576.038086,621.190308 
	C576.227844,621.532166 576.385742,622.174316 576.236450,622.756104 
z"/>
<path fill="#454F58" opacity="1.000000" stroke="none" 
	d="
M582.064392,294.335938 
	C582.125305,294.158844 582.297668,294.113708 582.733337,294.111420 
	C582.723083,294.258789 582.449463,294.363342 582.064392,294.335938 
z"/>
<path fill="#EEF3F6" opacity="1.000000" stroke="none" 
	d="
M570.700378,521.735840 
	C570.744324,521.823242 570.813416,521.926270 570.877686,522.032227 
	C570.879517,522.035278 570.831421,522.068726 570.784058,521.942749 
	C570.761536,521.797424 570.724731,521.751953 570.700378,521.735840 
z"/>
<path fill="#1C3249" opacity="1.000000" stroke="none" 
	d="
M402.239624,609.023743 
	C402.238831,617.640686 402.238831,625.760742 402.238831,635.056152 
	C399.981934,633.159119 398.587128,631.986633 396.893005,630.562622 
	C395.872955,631.694763 394.844940,632.835754 393.117615,634.752869 
	C393.117615,622.172241 393.117615,610.533020 393.117615,598.511292 
	C395.904694,598.511292 398.779755,598.511292 402.240417,598.511292 
	C402.240417,601.954590 402.240417,605.240723 402.239624,609.023743 
z"/>
<path fill="#7B5A56" opacity="1.000000" stroke="none" 
	d="
M255.325378,356.930847 
	C255.307922,356.383148 255.628525,355.889984 255.949127,355.396790 
	C256.272797,355.695526 256.596466,355.994263 256.972198,356.576660 
	C256.570648,356.902008 256.117065,356.943726 255.325378,356.930847 
z"/>
<path fill="#455058" opacity="1.000000" stroke="none" 
	d="
M320.116821,515.023010 
	C321.767822,512.177429 323.398834,509.301361 325.029877,506.425293 
	C327.649597,514.184265 327.013824,515.088196 320.441650,514.911072 
	C320.027313,514.971008 320.096832,514.992554 320.116821,515.023010 
z"/>
<path fill="#675252" opacity="1.000000" stroke="none" 
	d="
M282.567505,346.925293 
	C282.687775,349.106689 282.376984,351.201416 282.026917,353.641296 
	C280.030487,351.901459 278.073364,349.816376 276.058868,347.392273 
	C278.046509,346.981659 280.091492,346.910126 282.567505,346.925293 
z"/>
<path fill="#7B5A56" opacity="1.000000" stroke="none" 
	d="
M271.683777,347.035461 
	C273.666290,349.037537 275.311584,350.984711 276.956848,352.931885 
	C276.630371,353.344086 276.303894,353.756317 275.977417,354.168518 
	C274.235352,353.117737 272.493286,352.066925 270.375610,351.008057 
	C270.000000,351.000000 270.001221,351.000519 270.001221,351.000519 
	C269.998291,349.959503 269.995361,348.918457 269.991211,347.487366 
	C270.442139,347.058411 270.894318,347.019501 271.683777,347.035461 
z"/>
<path fill="#7B5A56" opacity="1.000000" stroke="none" 
	d="
M255.683640,353.085388 
	C254.394669,352.890594 253.468140,352.752441 251.636505,352.479309 
	C253.520340,351.140411 254.729630,350.280945 256.451477,349.057190 
	C257.259247,350.521484 257.968292,351.806885 258.677338,353.092255 
	C257.800262,353.108856 256.923157,353.125427 255.683640,353.085388 
z"/>
<path fill="#675252" opacity="1.000000" stroke="none" 
	d="
M282.046387,354.311096 
	C282.452148,354.010345 282.891174,354.008362 283.659393,354.008698 
	C283.759613,354.529694 283.530670,355.048370 283.301697,355.567078 
	C282.894379,355.247986 282.487061,354.928925 282.046387,354.311096 
z"/>
<path fill="#7B5A56" opacity="1.000000" stroke="none" 
	d="
M261.740479,351.903229 
	C261.245026,351.799835 260.984802,351.654022 260.724609,351.508209 
	C260.984558,351.363037 261.306213,351.049103 261.488647,351.115845 
	C261.711945,351.197571 261.818634,351.598114 261.740479,351.903229 
z"/>
<path fill="#7B5A56" opacity="1.000000" stroke="none" 
	d="
M269.999390,350.999390 
	C269.876404,351.428925 269.754028,351.859070 269.631653,352.289215 
	C269.615509,351.937256 269.599335,351.585327 269.792175,351.116943 
	C270.001221,351.000519 270.000000,351.000000 269.999390,350.999390 
z"/>
<path fill="#1C3249" opacity="1.000000" stroke="none" 
	d="
M549.048584,716.034241 
	C547.757385,714.550476 545.455322,713.125122 545.292664,711.487366 
	C544.935059,707.886292 545.658752,704.177917 545.955566,700.325806 
	C552.701050,703.106689 553.461365,707.531494 549.077209,715.713989 
	C549.068176,716.086853 549.008179,715.996338 549.048584,716.034241 
z"/>
<path fill="#675252" opacity="1.000000" stroke="none" 
	d="
M226.001648,333.998871 
	C225.754318,333.652496 225.505356,333.307281 225.256378,332.962036 
	C225.379486,332.875000 225.502579,332.787964 225.625671,332.700928 
	C225.743317,332.975342 225.860962,333.249756 225.987595,333.763916 
	C225.996567,334.003662 226.000000,334.000000 226.001648,333.998871 
z"/>
<path fill="#5C504F" opacity="1.000000" stroke="none" 
	d="
M291.888916,350.766602 
	C291.669678,350.900726 291.401398,350.722565 291.084045,350.231750 
	C291.303314,350.097534 291.571625,350.275940 291.888916,350.766602 
z"/>
</svg>